<?xml version="1.0" standalone="no"?>
<!DOCTYPE svg PUBLIC "-//W3C//DTD SVG 20010904//EN"
 "http://www.w3.org/TR/2001/REC-SVG-20010904/DTD/svg10.dtd">
<svg version="1.0" xmlns="http://www.w3.org/2000/svg"
 width="500.000000pt" height="500.000000pt" viewBox="0 0 500.000000 500.000000"
 preserveAspectRatio="xMidYMid meet">
<metadata>
Created by potrace 1.14, written by Peter Selinger 2001-2017
</metadata>
<g transform="translate(0.000000,500.000000) scale(0.100000,-0.100000)"
fill="#000000" stroke="none">
<path d="M2335 4684 c-199 -29 -398 -101 -554 -199 -20 -12 -48 -25 -63 -29
-16 -3 -28 -12 -28 -19 0 -16 -135 -127 -154 -127 -8 0 -18 -10 -22 -22 -11
-36 -75 -108 -95 -108 -13 0 -18 -6 -16 -22 2 -19 -4 -24 -33 -29 -30 -5 -31
-7 -8 -8 l27 -1 -37 -59 c-23 -38 -39 -55 -44 -48 -5 7 -8 0 -8 -16 0 -32 -44
-124 -72 -151 -11 -10 -17 -25 -14 -33 9 -21 -24 -121 -41 -128 -8 -2 -27 2
-44 10 -16 9 -29 11 -29 6 0 -5 10 -12 23 -15 l22 -6 -25 -16 c-17 -10 -18
-13 -5 -8 11 3 31 9 44 12 21 4 23 2 18 -19 -26 -109 -30 -164 -25 -376 3
-130 10 -228 15 -232 6 -3 16 -31 23 -61 7 -30 23 -82 36 -114 13 -33 24 -61
24 -63 0 -2 -9 -3 -21 -3 -14 0 -19 -5 -16 -15 8 -19 -8 -28 -35 -19 -21 6
-21 7 -3 20 22 16 0 20 -25 4 -19 -12 -7 -23 39 -39 49 -16 71 -14 71 7 0 9
15 -10 33 -43 21 -38 29 -63 22 -67 -6 -5 -3 -8 8 -8 9 0 17 -4 17 -9 0 -5 -8
-12 -17 -14 -13 -3 -10 -5 7 -6 19 -1 37 -19 74 -73 26 -39 43 -67 37 -64 -7
5 -11 -2 -11 -18 0 -21 5 -26 23 -25 16 1 18 2 5 6 -17 4 -26 23 -12 23 4 0
48 -39 98 -88 103 -98 261 -214 285 -210 9 2 17 13 19 25 3 17 -12 32 -73 73
-102 69 -220 180 -203 191 9 6 6 9 -9 9 -30 0 -38 18 -11 23 16 3 13 5 -11 6
-19 0 -32 3 -29 6 3 3 -13 24 -34 46 -35 36 -38 43 -25 58 8 9 12 22 10 29 -3
6 0 12 6 12 6 0 11 -11 11 -24 0 -21 5 -24 40 -24 22 0 40 3 40 8 0 5 -6 7
-14 4 -8 -3 -17 -1 -21 5 -3 7 2 11 14 11 12 0 21 7 21 16 0 26 -43 13 -52
-16 -7 -23 -7 -23 -5 5 2 23 -2 30 -15 29 -10 -1 -18 3 -18 10 0 6 -5 4 -10
-4 -9 -13 -11 -13 -20 0 -6 10 -10 11 -10 3 0 -20 4 -28 13 -25 4 1 7 -2 7 -7
0 -6 -9 -9 -20 -8 -14 1 -20 8 -20 24 0 13 -6 23 -13 23 -18 0 -47 63 -47 100
0 19 -5 30 -14 30 -12 0 -46 56 -50 84 -1 6 -5 17 -9 24 -5 7 -3 12 7 12 23 0
20 21 -4 27 -20 5 -41 59 -44 113 -1 14 -5 30 -8 36 -4 6 -13 65 -19 130 -11
123 -6 246 15 349 10 53 15 60 37 63 22 3 25 7 21 32 -2 17 -8 30 -13 30 -15
0 -10 26 13 85 20 49 26 55 53 56 l30 1 -27 7 -27 6 21 47 c12 28 25 45 33 42
8 -3 15 8 19 33 6 36 86 162 86 135 0 -10 3 -10 14 0 7 7 11 18 9 25 -3 7 21
40 53 73 48 50 63 60 93 61 l36 1 -30 8 c-28 7 -29 8 -8 15 13 4 21 11 18 15
-3 5 -1 11 5 15 5 3 10 2 10 -4 0 -5 10 -11 23 -13 12 -2 23 -10 23 -18 1 -8
2 -22 3 -30 1 -13 2 -13 11 0 7 11 10 11 10 2 0 -10 3 -10 13 -1 7 7 13 21 13
31 0 10 -6 18 -13 18 -7 0 -13 6 -13 13 0 8 -4 7 -11 -3 -8 -11 -12 -12 -16
-2 -2 6 -12 12 -21 12 -30 1 60 70 91 70 21 0 27 5 28 23 1 21 1 21 9 -3 7
-25 7 -25 12 5 l4 30 12 -27 c14 -34 28 -36 36 -5 9 36 6 44 -8 18 -13 -23
-13 -23 -18 -3 -5 16 4 25 41 45 80 43 222 94 326 118 142 32 395 32 540 1
108 -23 224 -64 323 -114 54 -28 62 -36 62 -60 0 -33 17 -38 23 -5 4 22 4 22
15 -3 6 -14 11 -19 11 -11 1 16 29 0 113 -68 48 -38 56 -50 53 -71 -3 -14 -2
-19 1 -12 10 22 31 13 78 -38 41 -43 46 -54 46 -95 0 -25 5 -45 10 -45 6 0 10
5 10 10 0 26 38 5 68 -38 l33 -47 -23 -5 c-32 -8 -32 -54 0 -58 12 -2 22 1 22
7 0 6 -6 8 -14 5 -8 -3 -17 -1 -21 5 -3 7 2 11 14 11 12 0 21 6 22 13 0 6 5 0
11 -15 5 -16 13 -28 17 -28 5 0 16 -19 27 -42 14 -31 15 -43 6 -46 -6 -2 -12
-17 -12 -34 0 -27 3 -30 25 -26 21 4 26 0 40 -40 18 -55 18 -53 3 -50 -16 4
-18 -54 -2 -59 7 -2 10 6 7 24 l-4 28 15 -25 c51 -88 65 -483 21 -577 -9 -19
-14 -40 -12 -48 3 -7 1 -31 -5 -53 -8 -33 -15 -41 -36 -44 -33 -4 -42 -36 -16
-55 16 -12 16 -14 -1 -53 -13 -29 -24 -40 -40 -40 -13 0 -26 -7 -29 -16 -8
-21 -8 -20 8 -37 12 -12 11 -20 -10 -55 -14 -23 -32 -42 -40 -42 -8 0 -14 -10
-14 -24 0 -33 -80 -135 -106 -136 -22 0 -39 -24 -29 -40 8 -12 -128 -134 -209
-187 -39 -26 -74 -51 -78 -57 -9 -13 9 -46 25 -46 26 1 206 139 285 218 58 60
82 78 83 65 1 -10 5 -4 9 12 l8 30 1 -27 c1 -26 4 -28 44 -28 43 0 43 1 39 30
-6 39 -34 40 -50 3 l-12 -28 4 28 c2 15 -1 30 -5 33 -10 6 47 94 61 94 5 0 11
8 13 18 4 16 5 16 6 -1 1 -13 8 -17 24 -15 30 4 36 45 8 56 -20 7 -20 8 5 50
16 26 32 42 45 42 10 0 19 7 19 15 0 8 -4 15 -10 15 -5 0 -10 5 -10 11 0 5 5
7 12 3 8 -5 9 -2 5 10 -7 19 20 96 34 96 5 0 9 12 9 27 0 60 24 131 47 142 25
12 30 27 11 33 -10 4 -12 51 -10 194 2 139 -1 212 -13 277 -11 63 -13 99 -6
123 5 19 6 34 1 34 -5 0 -10 -10 -12 -22 -3 -16 -11 -2 -26 46 -12 37 -22 77
-22 87 0 10 -4 19 -9 19 -7 0 -41 70 -41 85 0 3 9 5 20 5 25 0 26 18 3 37 -17
14 -17 14 0 9 9 -3 17 -1 17 4 0 13 -37 13 -45 1 -3 -5 5 -17 17 -25 l23 -16
-28 2 c-24 2 -28 6 -24 26 3 17 0 26 -13 29 -22 6 -65 82 -61 108 2 11 8 26
13 33 8 9 6 12 -6 12 -11 0 -16 -9 -16 -26 0 -14 -4 -23 -10 -19 -5 3 -7 12
-4 20 4 9 -2 18 -13 22 -31 13 -103 98 -103 123 0 13 -8 24 -20 27 -11 3 -20
10 -20 15 0 5 -4 7 -9 4 -12 -8 -131 93 -131 110 0 8 -12 17 -27 20 -16 4 -30
10 -33 13 -12 15 -232 122 -300 146 -142 51 -232 66 -415 70 -93 2 -183 1
-200 -1z m-585 -394 c0 -5 -5 -10 -11 -10 -5 0 -7 5 -4 10 3 6 8 10 11 10 2 0
4 -4 4 -10z m1774 -165 c3 -8 1 -15 -4 -15 -6 0 -10 7 -10 15 0 8 2 15 4 15 2
0 6 -7 10 -15z m73 -141 c-3 -3 -12 -4 -19 -1 -8 3 -5 6 6 6 11 1 17 -2 13 -5z
m101 -167 c2 -10 -3 -17 -12 -17 -10 0 -16 9 -16 21 0 24 23 21 28 -4z m-2433
-157 c-3 -5 -11 -10 -16 -10 -6 0 -7 5 -4 10 3 6 11 10 16 10 6 0 7 -4 4 -10z
m2595 -586 c0 -2 -7 -4 -15 -4 -8 0 -15 4 -15 10 0 5 7 7 15 4 8 -4 15 -8 15
-10z m-143 -140 c-3 -3 -12 -4 -19 -1 -8 3 -5 6 6 6 11 1 17 -2 13 -5z m3 -24
c0 -5 -4 -10 -9 -10 -6 0 -13 5 -16 10 -3 6 1 10 9 10 9 0 16 -4 16 -10z m-57
-126 c8 -8 -3 -34 -14 -34 -5 0 -9 9 -9 20 0 19 11 26 23 14z m-2423 -24 c0
-5 -4 -10 -10 -10 -5 0 -10 5 -10 10 0 6 5 10 10 10 6 0 10 -4 10 -10z m307
-126 c-3 -3 -12 -4 -19 -1 -8 3 -5 6 6 6 11 1 17 -2 13 -5z m2153 -14 c0 -11
-7 -20 -15 -20 -8 0 -15 9 -15 20 0 11 7 20 15 20 8 0 15 -9 15 -20z m-230
-144 c0 -3 -4 -8 -10 -11 -5 -3 -10 -1 -10 4 0 6 5 11 10 11 6 0 10 -2 10 -4z
m160 -26 c0 -5 -7 -10 -16 -10 -8 0 -12 5 -9 10 3 6 10 10 16 10 5 0 9 -4 9
-10z"/>
<path d="M1993 4440 c0 -25 2 -35 4 -22 2 12 2 32 0 45 -2 12 -4 2 -4 -23z"/>
<path d="M2250 4470 c0 -5 9 -10 20 -10 11 0 20 5 20 10 0 6 -9 10 -20 10 -11
0 -20 -4 -20 -10z"/>
<path d="M2622 4448 c-2 -33 -5 -38 -27 -38 -20 0 -25 5 -25 25 0 14 -4 25
-10 25 -5 0 -10 -11 -10 -25 0 -34 -18 -32 -23 3 l-4 27 -2 -27 c-1 -35 -21
-37 -21 -3 0 20 -5 25 -25 25 -19 0 -25 -5 -25 -23 0 -15 -6 -23 -20 -24 -11
-1 -22 2 -25 8 -4 5 3 9 14 9 12 0 21 7 21 16 0 26 -43 13 -51 -16 l-6 -25 -4
25 c-3 21 -10 26 -41 28 -37 3 -38 2 -37 -30 2 -30 2 -31 6 -5 5 34 23 36 23
2 0 -19 -7 -26 -27 -31 -79 -17 -115 -27 -188 -52 -44 -14 -83 -31 -87 -36 -4
-6 -8 -7 -8 -3 0 5 -8 1 -17 -9 -16 -15 -17 -15 -24 2 -7 16 -8 15 -9 -6 -1
-25 -1 -25 -10 -2 -11 25 -45 30 -54 6 -3 -8 -2 -24 4 -33 8 -16 -1 -25 -53
-62 -34 -24 -68 -50 -75 -59 -12 -13 -13 -13 -8 3 3 11 0 17 -9 17 -10 0 -15
-11 -16 -32 0 -18 -3 -28 -5 -21 -3 7 -11 10 -19 7 -7 -3 -16 -1 -20 5 -3 7 2
11 14 11 12 0 21 7 21 16 0 10 -7 14 -22 12 -31 -4 -38 -47 -9 -55 12 -3 21
-8 21 -11 0 -2 -17 -23 -39 -46 -39 -42 -61 -55 -61 -36 0 27 -25 -16 -26 -44
-2 -41 -41 -105 -72 -117 -19 -7 -23 -15 -19 -35 4 -25 -16 -95 -36 -121 -5
-7 -17 -13 -26 -12 -12 0 -12 2 4 10 l20 9 -20 -3 c-26 -3 -35 -57 -9 -57 12
0 15 -6 10 -22 -3 -13 -13 -63 -22 -113 -16 -87 -15 -228 1 -365 3 -25 2 -39
-1 -32 -12 25 -24 11 -24 -28 0 -22 5 -40 10 -40 6 0 10 11 10 25 0 14 5 25
10 25 6 0 10 -10 10 -23 0 -13 4 -27 9 -32 14 -15 31 -85 20 -85 -5 0 -9 6 -9
13 0 8 -4 7 -11 -3 -8 -11 -12 -12 -16 -2 -5 14 -43 17 -43 3 0 -5 10 -11 22
-13 16 -2 23 -10 24 -26 1 -25 14 -44 14 -21 0 11 2 11 10 -1 6 -10 10 -11 10
-2 0 30 29 8 51 -40 13 -28 45 -82 71 -119 62 -91 61 -90 44 -83 -13 5 -16 -1
-16 -30 0 -32 3 -36 25 -36 19 0 25 5 26 23 l1 22 6 -23 c4 -13 10 -22 14 -20
4 2 31 -18 60 -43 50 -43 54 -50 51 -85 -2 -30 -1 -33 5 -15 11 35 30 37 35 4
l4 -28 2 30 c3 29 3 29 10 5 6 -21 14 -25 50 -28 41 -3 42 -2 39 25 -2 21 -9
29 -27 31 -18 3 -22 0 -18 -11 3 -9 -1 -21 -8 -27 -12 -10 -14 -6 -13 26 1 33
-4 42 -43 76 -24 21 -39 38 -33 38 15 0 25 26 18 45 -8 20 -41 19 -53 -2 -10
-17 -10 -17 -11 0 0 9 -6 17 -13 17 -12 0 -77 71 -77 83 0 3 9 7 21 10 29 8
22 51 -8 55 -19 3 -23 -1 -23 -24 0 -32 -12 -25 -15 9 -2 12 -7 21 -12 20 -15
-3 -66 94 -53 102 5 3 10 1 10 -4 0 -6 5 -11 11 -11 8 0 8 5 -1 15 -10 12 -10
18 0 30 9 10 9 15 1 15 -6 0 -11 -5 -11 -11 0 -8 -4 -8 -14 0 -12 10 -14 8
-10 -11 5 -29 -32 47 -41 84 -5 20 -3 27 12 31 16 4 16 5 1 6 -25 1 -22 21 3
21 12 0 19 5 17 13 -6 16 -39 22 -48 7 -10 -17 -30 90 -36 205 -7 104 4 205
33 308 14 50 19 57 42 58 23 2 24 2 4 6 -27 5 -31 23 -5 23 13 0 14 2 4 9 -11
7 -10 16 7 50 12 22 28 41 36 41 9 0 13 10 13 29 -1 38 48 110 85 124 9 3 17
17 17 30 0 28 97 127 125 127 13 0 16 3 8 8 -9 6 -7 11 7 20 18 11 20 9 21
-10 1 -23 1 -22 8 1 9 35 29 37 34 4 4 -27 4 -27 6 5 0 19 -4 32 -11 32 -20 0
88 69 150 97 49 21 57 22 64 9 5 -9 17 -16 27 -16 19 0 35 25 26 40 -3 5 -1
11 5 15 6 4 11 -7 11 -27 2 -30 2 -31 6 -5 2 15 10 27 18 27 8 0 16 -12 18
-27 4 -27 4 -27 6 4 0 17 -4 33 -11 35 -7 3 17 11 52 19 129 28 523 9 466 -23
-24 -13 -20 -49 6 -56 21 -5 21 -6 2 -13 -18 -7 -17 -8 4 -8 19 -1 22 4 22 39
0 48 19 54 21 8 l2 -33 5 30 c5 30 5 30 11 5 7 -25 51 -43 51 -21 0 6 -7 8
-15 5 -8 -4 -15 -1 -15 5 0 15 39 14 45 -1 3 -7 15 -14 28 -14 13 -1 56 -21
96 -45 56 -34 68 -45 52 -47 -16 -3 -21 -11 -21 -33 0 -16 5 -29 10 -29 6 0
10 11 10 25 0 34 18 32 23 -2 l4 -28 2 28 c1 31 21 28 21 -4 0 -14 7 -19 25
-19 31 0 105 -65 105 -92 0 -10 4 -17 9 -14 4 3 16 -3 26 -14 10 -11 15 -20
10 -20 -4 0 2 -8 13 -17 11 -10 28 -30 37 -45 17 -28 17 -28 -6 -29 -13 0 -18
-3 -11 -6 6 -2 12 -20 12 -39 0 -19 5 -34 10 -34 6 0 10 17 10 38 1 35 2 36
15 18 8 -11 15 -28 15 -38 0 -10 4 -18 10 -18 16 0 48 -83 39 -102 -11 -21 -1
-48 17 -48 14 0 26 -37 44 -139 13 -72 18 -246 8 -256 -3 -4 -16 -2 -27 5 -14
7 -21 7 -21 0 0 -5 6 -10 14 -10 30 0 38 -26 25 -89 -9 -48 -14 -58 -28 -53
-9 3 -19 10 -23 16 -4 6 -8 -8 -8 -31 0 -32 4 -43 16 -43 16 0 15 -9 -8 -70
-5 -14 -10 -27 -10 -30 0 -3 -4 -13 -9 -22 -10 -19 -49 -25 -49 -8 0 6 9 10
20 10 11 0 20 5 20 10 0 6 -9 10 -20 10 -27 0 -25 18 3 23 16 3 13 5 -10 6
-32 1 -33 0 -33 -39 0 -36 3 -40 25 -40 14 0 25 -2 25 -5 0 -14 -32 -65 -40
-65 -6 0 -10 -7 -10 -16 0 -13 -7 -15 -32 -10 -28 5 -30 4 -14 -6 18 -10 18
-11 -5 -24 -24 -14 -24 -14 6 -8 l30 7 -20 -24 c-57 -69 -79 -89 -88 -76 -6 8
-7 5 -4 -10 3 -14 -2 -28 -14 -39 -18 -16 -19 -16 -19 4 0 33 -11 52 -30 52
-28 0 -41 -57 -20 -90 7 -11 8 -5 4 20 -6 42 10 74 26 50 19 -28 10 -56 -30
-95 -34 -34 -40 -45 -40 -82 0 -39 2 -43 25 -43 21 0 25 5 25 29 0 17 4 33 10
36 6 4 8 -5 4 -22 -3 -16 0 -36 8 -46 11 -15 13 -12 10 28 -4 45 -3 47 72 123
l76 77 0 -32 c0 -18 5 -33 10 -33 6 0 10 15 10 34 0 19 6 37 13 39 7 3 5 6 -6
6 -14 1 -10 12 25 62 43 60 43 60 49 32 l7 -28 1 28 c1 33 18 36 23 5 4 -27
42 -37 51 -14 11 29 -3 45 -39 44 -19 -1 -37 1 -40 4 -3 4 4 25 16 49 17 32
24 39 31 28 6 -9 12 -10 17 -4 12 17 52 36 52 25 0 -5 10 -9 23 -9 16 1 18 2
5 6 -25 6 -22 23 3 23 12 0 19 5 17 13 -6 15 -48 22 -48 8 0 -8 -8 -7 -22 1
-13 7 -24 14 -26 14 -1 1 6 26 17 55 57 158 62 413 11 597 -23 83 -23 82 -11
82 5 0 12 -12 14 -27 4 -26 4 -26 6 5 1 25 -3 32 -18 32 -26 0 -57 76 -39 97
9 12 9 16 -3 24 -8 5 -18 9 -24 10 -5 0 -1 4 10 9 18 8 18 9 -5 9 -20 1 -33
13 -58 55 -37 63 -38 66 -13 66 23 0 34 23 18 39 -18 18 -57 14 -57 -6 0 -25
-119 107 -120 132 -1 32 -16 48 -40 42 -14 -4 -38 6 -75 31 -43 30 -54 43 -55
65 0 15 4 27 9 27 5 0 12 -12 14 -27 4 -26 4 -26 6 5 1 28 -2 32 -24 32 -20 0
-25 -5 -25 -26 0 -14 -4 -23 -9 -20 -5 3 -7 15 -4 26 4 16 1 20 -18 19 -22 0
-23 -1 -4 -9 11 -5 15 -9 8 -9 -21 -2 -43 11 -43 25 0 16 -16 19 -25 4 -4 -6
-22 -2 -47 11 -23 12 -82 31 -132 44 -84 21 -91 25 -94 49 -5 36 25 35 31 -1
4 -26 4 -26 6 5 1 28 -2 32 -23 32 -20 0 -25 -6 -29 -32 l-4 -33 -1 33 c-1 17
-6 32 -12 32 -5 0 -11 -15 -12 -32 -1 -28 -2 -27 -8 12 l-7 45 -1 -37z m-255
-32 c-4 -9 -11 -16 -17 -16 -11 0 -14 33 -3 44 11 10 26 -11 20 -28z m60 28
c-3 -3 -12 -4 -19 -1 -8 3 -5 6 6 6 11 1 17 -2 13 -5z m63 -14 c0 -11 -4 -20
-10 -20 -5 0 -10 9 -10 20 0 11 5 20 10 20 6 0 10 -9 10 -20z m-545 -150 c0
-7 -6 -15 -12 -17 -8 -3 -13 4 -13 17 0 13 5 20 13 18 6 -3 12 -11 12 -18z
m221 -18 c-4 -3 -12 0 -19 7 -9 9 -9 14 3 21 11 7 16 5 18 -6 2 -9 1 -18 -2
-22z m614 18 c0 -11 -4 -20 -9 -20 -14 0 -23 18 -16 30 10 17 25 11 25 -10z
m444 -126 c9 -24 7 -28 -9 -14 -17 14 -20 30 -6 30 5 0 12 -7 15 -16z m-1497
-10 c-3 -3 -12 -4 -19 -1 -8 3 -5 6 6 6 11 1 17 -2 13 -5z m1418 -24 c3 -5 1
-10 -4 -10 -6 0 -11 5 -11 10 0 6 2 10 4 10 3 0 8 -4 11 -10z m265 -125 c0 -8
-7 -15 -15 -15 -8 0 -15 7 -15 15 0 8 7 15 15 15 8 0 15 -7 15 -15z m-1770 -9
c0 -3 -4 -8 -10 -11 -5 -3 -10 -1 -10 4 0 6 5 11 10 11 6 0 10 -2 10 -4z
m1845 -184 c-3 -3 -11 0 -18 7 -9 10 -8 11 6 5 10 -3 15 -9 12 -12z m-28 -144
c-3 -8 -6 -5 -6 6 -1 11 2 17 5 13 3 -3 4 -12 1 -19z m-1987 2 c0 -5 -7 -10
-15 -10 -8 0 -15 5 -15 10 0 6 7 10 15 10 8 0 15 -4 15 -10z m2005 -590 c0 -7
-6 -15 -12 -17 -8 -3 -13 4 -13 17 0 13 5 20 13 18 6 -3 12 -11 12 -18z
m-1995 -140 c0 -5 -5 -10 -11 -10 -5 0 -7 5 -4 10 3 6 8 10 11 10 2 0 4 -4 4
-10z m2050 -10 c0 -11 -4 -20 -10 -20 -5 0 -10 9 -10 20 0 11 5 20 10 20 6 0
10 -9 10 -20z m-1825 -150 c0 -7 -6 -15 -12 -17 -8 -3 -13 4 -13 17 0 13 5 20
13 18 6 -3 12 -11 12 -18z m1805 0 c0 -11 -4 -20 -9 -20 -14 0 -23 18 -16 30
10 17 25 11 25 -10z m-1853 -162 c-3 -7 -5 -2 -5 12 0 14 2 19 5 13 2 -7 2
-19 0 -25z m163 12 c0 -21 -15 -27 -25 -10 -7 12 2 30 16 30 5 0 9 -9 9 -20z
m1325 -160 c0 -7 -6 -15 -12 -17 -8 -3 -13 4 -13 17 0 13 5 20 13 18 6 -3 12
-11 12 -18z m-1205 -10 c0 -5 -4 -10 -10 -10 -5 0 -10 5 -10 10 0 6 5 10 10
10 6 0 10 -4 10 -10z"/>
<path d="M2731 4440 c0 -34 2 -41 10 -30 8 11 12 12 16 3 2 -7 9 -13 15 -13 6
0 6 6 -2 15 -10 12 -10 18 0 30 8 9 9 15 2 15 -6 0 -14 -6 -18 -12 -6 -9 -10
-5 -15 12 -5 19 -7 15 -8 -20z"/>
<path d="M2882 4440 c1 -29 2 -35 5 -17 5 34 23 36 23 2 0 -14 5 -25 10 -25
18 0 11 50 -7 57 -10 4 -21 11 -25 17 -4 6 -7 -9 -6 -34z"/>
<path d="M3000 4471 c0 -5 -9 -11 -21 -14 -29 -8 -22 -51 9 -55 20 -3 22 1 22
37 0 23 -2 41 -5 41 -3 0 -5 -4 -5 -9z m0 -41 c0 -11 -4 -20 -9 -20 -14 0 -23
18 -16 30 10 17 25 11 25 -10z"/>
<path d="M3060 4470 c0 -5 -6 -10 -14 -10 -16 0 -31 -34 -21 -50 3 -5 17 -10
31 -10 21 0 24 4 24 40 0 22 -4 40 -10 40 -5 0 -10 -4 -10 -10z m0 -40 c0 -11
-4 -20 -10 -20 -5 0 -10 9 -10 20 0 11 5 20 10 20 6 0 10 -9 10 -20z"/>
<path d="M1934 4445 c-13 -32 23 -63 40 -36 4 5 -3 7 -14 4 -16 -4 -20 0 -20
17 0 17 4 21 20 17 11 -3 18 -1 14 4 -8 14 -34 11 -40 -6z"/>
<path d="M2016 4438 c-9 -36 -8 -38 22 -38 26 0 28 3 24 30 -5 36 -37 42 -46
8z m34 -18 c0 -5 -7 -10 -16 -10 -8 0 -12 5 -9 10 3 6 10 10 16 10 5 0 9 -4 9
-10z"/>
<path d="M2075 4451 c-3 -6 5 -15 17 -22 22 -12 22 -12 3 -20 -19 -7 -19 -8 2
-8 18 -1 22 4 21 29 -1 22 -6 30 -19 30 -10 0 -20 -4 -24 -9z"/>
<path d="M2135 4451 c-3 -5 5 -17 17 -26 l23 -17 -22 5 c-13 3 -23 1 -23 -4 0
-5 11 -9 25 -9 29 0 32 17 8 37 -17 14 -17 14 0 9 9 -3 17 -1 17 4 0 13 -37
13 -45 1z"/>
<path d="M2203 4453 c9 -2 23 -2 30 0 6 3 -1 5 -18 5 -16 0 -22 -2 -12 -5z"/>
<path d="M2790 4449 c0 -7 8 -18 18 -26 16 -14 16 -14 0 -9 -10 3 -18 1 -18
-4 0 -13 37 -13 45 -1 3 5 -4 16 -16 24 -19 14 -20 15 -2 20 15 4 14 5 -4 6
-13 0 -23 -4 -23 -10z"/>
<path d="M2942 4430 c0 -19 2 -27 5 -17 2 9 2 25 0 35 -3 9 -5 1 -5 -18z"/>
<path d="M3097 4454 c-4 -4 -7 -18 -7 -31 0 -16 6 -23 19 -23 11 0 22 4 25 9
4 5 -3 7 -14 4 -11 -3 -20 0 -20 6 0 6 9 11 21 11 12 0 19 5 17 13 -5 14 -31
21 -41 11z m30 -10 c-3 -3 -12 -4 -19 -1 -8 3 -5 6 6 6 11 1 17 -2 13 -5z"/>
<path d="M2580 4430 c0 -5 7 -10 15 -10 8 0 15 5 15 10 0 6 -7 10 -15 10 -8 0
-15 -4 -15 -10z"/>
<path d="M2203 4423 c9 -2 25 -2 35 0 9 3 1 5 -18 5 -19 0 -27 -2 -17 -5z"/>
<path d="M1143 4290 c0 -25 2 -35 4 -22 2 12 2 32 0 45 -2 12 -4 2 -4 -23z"/>
<path d="M1410 4290 c0 -22 5 -40 10 -40 6 0 10 11 10 25 0 34 18 32 23 -2 4
-26 4 -26 6 5 1 22 -3 32 -14 32 -8 0 -15 5 -15 10 0 6 -4 10 -10 10 -5 0 -10
-18 -10 -40z"/>
<path d="M1840 4295 c-2 -34 -3 -36 -9 -15 -4 15 -15 26 -27 28 -17 2 -21 -3
-22 -28 -1 -30 0 -30 54 -30 53 0 54 0 54 30 0 23 -5 30 -19 30 -11 0 -22 6
-24 13 -3 6 -6 -6 -7 -28z m40 -15 c0 -21 -15 -27 -25 -10 -7 12 2 30 16 30 5
0 9 -9 9 -20z m-70 -10 c0 -5 -4 -10 -10 -10 -5 0 -10 5 -10 10 0 6 5 10 10
10 6 0 10 -4 10 -10z"/>
<path d="M2323 4290 c0 -25 2 -35 4 -22 2 12 2 32 0 45 -2 12 -4 2 -4 -23z"/>
<path d="M2420 4316 c0 -9 -8 -12 -25 -8 -22 4 -25 1 -25 -27 0 -28 2 -30 35
-29 19 1 35 6 35 11 0 5 8 3 17 -4 17 -13 17 -13 0 13 -9 15 -17 34 -17 43 0
8 -4 15 -10 15 -5 0 -10 -6 -10 -14z m-10 -26 c13 -9 13 -11 0 -20 -22 -15
-30 -12 -30 10 0 22 8 25 30 10z"/>
<path d="M2540 4321 c0 -5 10 -11 23 -13 16 -2 23 -11 25 -30 5 -39 17 -35 16
4 -1 19 -7 32 -13 31 -6 -2 -11 2 -11 7 0 6 -9 10 -20 10 -11 0 -20 -4 -20 -9z"/>
<path d="M3186 4314 c-9 -23 -7 -57 4 -74 7 -11 8 -5 4 20 -2 19 0 42 6 50 16
24 32 -7 26 -50 -4 -25 -3 -31 4 -20 21 33 8 90 -20 90 -10 0 -21 -7 -24 -16z"/>
<path d="M3251 4314 c0 -11 3 -14 6 -6 3 7 2 16 -1 19 -3 4 -6 -2 -5 -13z"/>
<path d="M3271 4314 c0 -11 3 -14 6 -6 3 7 2 16 -1 19 -3 4 -6 -2 -5 -13z"/>
<path d="M3737 4323 c-8 -14 -19 -73 -13 -73 6 0 27 72 22 78 -2 2 -6 0 -9 -5z"/>
<path d="M3954 4298 c-9 -36 -10 -36 -34 -23 l-25 15 23 6 c12 3 22 10 22 15
0 5 -14 2 -31 -7 -33 -17 -31 -23 14 -42 25 -11 28 -10 38 15 5 14 8 34 6 42
-2 9 -7 -1 -13 -21z"/>
<path d="M3983 4290 c0 -25 2 -35 4 -22 2 12 2 32 0 45 -2 12 -4 2 -4 -23z"/>
<path d="M1276 4304 c-30 -17 -26 -28 14 -38 l25 -7 -25 15 -25 16 23 6 c12 3
22 10 22 15 0 11 1 11 -34 -7z"/>
<path d="M3628 4315 c-6 -7 3 -65 11 -65 7 0 7 58 -1 65 -2 3 -7 3 -10 0z"/>
<path d="M3676 4303 l-30 -16 28 -14 c15 -8 30 -12 33 -9 3 3 -5 10 -18 14
l-24 9 23 7 c12 4 22 12 22 17 0 11 1 11 -34 -8z"/>
<path d="M4030 4311 c0 -5 10 -12 23 -15 l22 -6 -25 -15 c-32 -18 -14 -19 19
-1 l25 14 -32 16 c-18 9 -32 12 -32 7z"/>
<path d="M1080 4300 c-18 -11 -6 -25 30 -34 l25 -7 -24 14 c-23 14 -23 15 -5
25 14 8 15 11 4 12 -8 0 -22 -5 -30 -10z"/>
<path d="M1160 4280 c0 -16 5 -30 10 -30 6 0 10 14 10 30 0 17 -4 30 -10 30
-5 0 -10 -13 -10 -30z"/>
<path d="M1210 4295 c18 -10 20 -14 8 -15 -9 0 -20 -4 -23 -10 -9 -15 8 -12
31 5 16 13 17 16 4 25 -8 5 -22 10 -30 9 -9 0 -5 -6 10 -14z"/>
<path d="M1329 4308 c0 -2 -3 -15 -5 -30 -4 -25 -2 -28 24 -28 26 0 28 3 24
30 -3 21 -10 30 -23 30 -11 0 -19 -1 -20 -2z m28 -14 c-3 -3 -12 -4 -19 -1 -8
3 -5 6 6 6 11 1 17 -2 13 -5z m-2 -24 c-3 -5 -11 -10 -16 -10 -6 0 -7 5 -4 10
3 6 11 10 16 10 6 0 7 -4 4 -10z"/>
<path d="M1481 4278 c1 -22 3 -26 6 -13 3 11 10 26 15 33 8 9 6 12 -6 12 -12
0 -16 -9 -15 -32z"/>
<path d="M2264 4295 c-13 -32 23 -63 40 -36 4 5 -3 7 -14 4 -16 -4 -20 0 -20
17 0 17 4 21 20 17 11 -3 18 -1 14 4 -8 14 -34 11 -40 -6z"/>
<path d="M2342 4280 c0 -19 2 -27 5 -17 2 9 2 25 0 35 -3 9 -5 1 -5 -18z"/>
<path d="M2493 4303 c9 -2 23 -2 30 0 6 3 -1 5 -18 5 -16 0 -22 -2 -12 -5z"/>
<path d="M2620 4280 c0 -27 3 -31 23 -28 16 2 22 10 22 28 0 18 -6 26 -22 28
-20 3 -23 -1 -23 -28z m40 0 c0 -11 -7 -20 -15 -20 -8 0 -15 9 -15 20 0 11 7
20 15 20 8 0 15 -9 15 -20z"/>
<path d="M2687 4303 c-15 -15 -6 -45 16 -51 22 -6 22 -6 -3 -13 l-25 -7 28 -1
c25 -1 27 2 27 39 0 32 -4 40 -18 40 -10 0 -22 -3 -25 -7z m28 -23 c0 -7 -6
-15 -12 -17 -8 -3 -13 4 -13 17 0 13 5 20 13 18 6 -3 12 -11 12 -18z"/>
<path d="M3121 4283 c-1 -29 2 -33 24 -33 21 0 25 5 25 30 0 17 -4 30 -10 30
-5 0 -10 -11 -10 -25 0 -34 -18 -32 -23 3 -4 25 -4 25 -6 -5z"/>
<path d="M3314 4299 c18 -11 18 -12 -5 -26 l-24 -14 25 7 c26 7 47 21 39 28
-2 2 -15 7 -29 10 -22 6 -23 6 -6 -5z"/>
<path d="M3500 4280 c0 -27 3 -31 23 -28 16 2 22 10 22 28 0 18 -6 26 -22 28
-20 3 -23 -1 -23 -28z m40 0 c0 -11 -7 -20 -15 -20 -8 0 -15 9 -15 20 0 11 7
20 15 20 8 0 15 -9 15 -20z"/>
<path d="M3562 4283 c2 -20 9 -29 26 -31 19 -3 22 1 21 30 -2 30 -2 31 -6 6
-5 -35 -23 -37 -23 -3 0 14 -5 25 -11 25 -6 0 -9 -12 -7 -27z"/>
<path d="M3756 4288 c-9 -36 -8 -38 22 -38 26 0 28 3 24 30 -5 36 -37 42 -46
8z m34 -18 c0 -5 -7 -10 -16 -10 -8 0 -12 5 -9 10 3 6 10 10 16 10 5 0 9 -4 9
-10z"/>
<path d="M3840 4295 c18 -10 20 -14 8 -15 -9 0 -20 -4 -23 -10 -9 -15 8 -12
31 5 16 13 17 16 4 25 -8 5 -22 10 -30 9 -9 0 -5 -6 10 -14z"/>
<path d="M4012 4280 c0 -19 2 -27 5 -17 2 9 2 25 0 35 -3 9 -5 1 -5 -18z"/>
<path d="M2493 4273 c9 -2 25 -2 35 0 9 3 1 5 -18 5 -19 0 -27 -2 -17 -5z"/>
<path d="M873 4140 c0 -25 2 -35 4 -22 2 12 2 32 0 45 -2 12 -4 2 -4 -23z"/>
<path d="M1140 4140 c0 -22 5 -40 10 -40 6 0 10 11 10 25 0 34 18 32 23 -2 4
-26 4 -26 6 5 1 22 -3 32 -14 32 -8 0 -15 5 -15 10 0 6 -4 10 -10 10 -5 0 -10
-18 -10 -40z"/>
<path d="M1308 4168 c-2 -7 -1 -26 3 -43 7 -30 7 -30 8 -3 1 23 6 27 39 31
l37 4 -38 1 c-23 1 -36 6 -32 12 3 6 2 10 -3 10 -6 0 -12 -6 -14 -12z"/>
<path d="M2061 4164 c0 -11 3 -14 6 -6 3 7 2 16 -1 19 -3 4 -6 -2 -5 -13z"/>
<path d="M2081 4164 c0 -11 3 -14 6 -6 3 7 2 16 -1 19 -3 4 -6 -2 -5 -13z"/>
<path d="M2323 4140 c0 -25 2 -35 4 -22 2 12 2 32 0 45 -2 12 -4 2 -4 -23z"/>
<path d="M2420 4166 c0 -9 -8 -12 -26 -8 -25 5 -26 3 -22 -30 l4 -35 -56 -12
c-66 -14 -150 -47 -217 -86 -49 -29 -60 -31 -55 -8 2 7 -6 13 -16 13 -30 0
-35 -13 -10 -32 20 -15 21 -18 5 -18 -10 0 -16 -3 -14 -8 3 -4 -19 -27 -48
-52 -30 -25 -54 -52 -55 -60 0 -12 -3 -11 -11 3 -5 9 -19 17 -29 17 -16 0 -20
-6 -19 -32 2 -31 2 -31 6 -5 5 34 23 36 23 2 0 -14 -16 -48 -35 -75 -19 -27
-35 -55 -35 -62 0 -8 -5 -5 -11 5 -5 9 -19 17 -29 17 -16 0 -20 -7 -20 -30 0
-23 4 -30 20 -30 24 0 24 -1 5 -46 -24 -59 -45 -179 -45 -264 0 -44 -4 -80 -8
-80 -5 0 -9 -13 -10 -29 0 -20 5 -30 17 -34 12 -3 21 -18 25 -42 7 -36 -2 -64
-12 -36 -4 11 -6 11 -14 0 -7 -11 -11 -11 -15 -1 -5 14 -43 17 -43 3 0 -5 10
-11 23 -13 12 -2 23 -10 23 -18 1 -8 2 -22 3 -30 1 -13 2 -13 11 0 7 11 10 11
10 2 0 -10 3 -10 14 0 7 7 11 19 8 27 -3 9 -1 12 6 7 7 -4 12 -13 12 -21 0 -8
11 -35 25 -61 18 -34 22 -51 15 -64 -14 -26 -2 -50 24 -49 16 1 17 2 4 6 -10
2 -18 9 -18 14 0 20 19 7 55 -38 21 -27 45 -54 54 -60 13 -12 13 -13 -2 -13
-12 0 -17 -8 -17 -29 0 -28 2 -30 38 -28 35 1 37 3 35 32 -1 16 -2 32 -2 34
-1 2 -9 -3 -18 -10 -14 -11 -14 -9 1 9 19 22 19 23 -3 52 -21 30 -21 30 -1 30
11 0 20 4 20 9 0 5 -8 8 -17 7 -10 0 -18 6 -18 14 0 8 8 14 18 14 9 -1 17 2
17 7 0 19 -41 8 -50 -13 l-9 -23 0 23 c-1 12 -7 22 -16 22 -8 0 -24 18 -35 40
-24 47 -24 50 -5 50 10 0 15 10 15 30 0 23 -4 30 -20 30 -11 0 -20 6 -21 13 0
6 -4 3 -8 -7 -11 -29 -35 65 -28 109 3 20 2 33 -3 30 -13 -8 -20 23 -20 93 0
77 19 172 49 254 l22 56 50 -5 51 -5 -4 29 c-2 21 -9 29 -27 31 -18 3 -22 0
-18 -11 3 -9 -1 -21 -9 -27 -11 -10 -14 -9 -14 4 0 44 55 126 85 126 9 0 13 5
10 10 -3 6 -3 16 1 22 6 9 10 5 15 -12 6 -23 7 -22 8 8 1 19 5 31 11 27 6 -3
10 1 10 9 0 19 97 86 124 86 10 0 25 8 32 18 13 16 13 16 15 -3 1 -17 2 -16 8
4 9 35 29 37 34 4 4 -27 4 -27 6 4 1 28 6 34 34 41 32 8 32 8 38 -32 l6 -41 1
43 c1 24 6 41 11 38 5 -4 11 -1 13 5 7 22 205 24 294 4 64 -14 75 -19 57 -26
-14 -5 -23 -17 -23 -30 0 -13 8 -23 23 -27 22 -6 22 -6 -3 -13 l-25 -7 28 -1
c25 -1 27 2 27 39 0 22 4 40 9 40 4 0 6 -12 3 -26 -4 -20 0 -26 19 -31 22 -6
22 -7 3 -14 -18 -7 -18 -8 3 -8 17 -1 22 6 25 32 l4 32 11 -25 c7 -14 12 -20
12 -13 1 15 50 -8 114 -55 40 -29 46 -37 33 -44 -24 -13 -21 -58 3 -58 11 0
22 4 25 9 4 5 -3 7 -14 4 -11 -3 -20 -1 -20 5 0 5 11 12 25 14 19 4 25 1 25
-13 0 -10 5 -16 13 -14 18 7 87 -92 87 -126 0 -18 5 -29 14 -29 8 0 23 -24 35
-56 52 -139 67 -334 25 -334 -17 0 -20 -56 -3 -62 14 -5 -7 -88 -21 -88 -6 0
-10 -11 -10 -25 0 -34 -18 -32 -23 3 -4 26 -4 26 -6 -5 0 -17 4 -33 11 -35 8
-3 4 -18 -12 -46 -17 -30 -30 -42 -47 -42 -19 0 -23 -5 -23 -30 0 -17 -10 -44
-22 -60 -17 -23 -19 -32 -9 -43 9 -12 7 -16 -10 -20 -29 -8 -23 -51 9 -55 12
-2 22 1 22 7 0 6 -6 8 -14 5 -8 -3 -17 -1 -21 5 -3 7 2 11 14 11 12 0 21 6 21
13 1 6 19 30 40 52 22 22 40 43 40 47 0 5 11 8 25 8 22 0 25 4 25 35 0 20 8
50 17 68 10 18 24 46 31 62 l12 30 -5 -35 c-4 -25 -2 -31 5 -20 5 8 10 34 10
56 0 62 11 104 26 104 16 0 17 1 4 155 -6 65 -19 154 -31 196 -16 59 -18 82
-10 97 14 27 14 44 -2 65 -10 15 -12 10 -9 -30 3 -46 2 -47 -13 -28 -9 11 -15
32 -12 48 2 19 0 24 -7 17 -16 -16 -61 68 -57 107 3 37 -15 45 -22 11 l-4 -23
-8 23 c-4 12 -11 22 -14 22 -4 0 -29 19 -54 43 -42 38 -47 48 -47 85 0 48 -15
55 -31 15 l-11 -28 -11 25 c-15 35 -17 36 -26 21 -7 -10 -17 -8 -52 10 -24 12
-66 30 -94 40 -27 10 -44 18 -37 18 7 1 12 16 12 42 0 36 -2 40 -22 37 -33 -4
-37 -45 -6 -57 l23 -10 -25 -1 c-74 -6 -103 9 -98 49 2 17 -2 25 -10 24 -6 -2
-12 2 -12 7 0 6 -9 10 -20 10 -27 0 -25 -18 3 -22 16 -2 23 -11 25 -31 l3 -28
-75 2 c-42 1 -76 6 -76 11 0 5 5 6 10 3 6 -3 10 -2 10 4 0 5 -4 13 -10 16 -5
3 -10 15 -10 26 0 10 -4 19 -10 19 -5 0 -10 -6 -10 -14z m-10 -26 c13 -9 13
-11 0 -20 -22 -15 -30 -12 -30 10 0 22 8 25 30 10z m305 -10 c0 -7 -6 -15 -12
-17 -8 -3 -13 4 -13 17 0 13 5 20 13 18 6 -3 12 -11 12 -18z m0 -160 c0 -7 -6
-15 -12 -17 -8 -3 -13 4 -13 17 0 13 5 20 13 18 6 -3 12 -11 12 -18z m65 0 c0
-11 -4 -20 -9 -20 -14 0 -23 18 -16 30 10 17 25 11 25 -10z m207 -136 c-3 -3
-12 -4 -19 -1 -8 3 -5 6 6 6 11 1 17 -2 13 -5z m-1197 -164 c0 -11 -7 -20 -15
-20 -8 0 -15 9 -15 20 0 11 7 20 15 20 8 0 15 -9 15 -20z m150 -10 c0 -5 -4
-10 -10 -10 -5 0 -10 5 -10 10 0 6 5 10 10 10 6 0 10 -4 10 -10z m1260 -440
c0 -11 -4 -20 -10 -20 -5 0 -10 9 -10 20 0 11 5 20 10 20 6 0 10 -9 10 -20z
m67 -12 c-3 -7 -5 -2 -5 12 0 14 2 19 5 13 2 -7 2 -19 0 -25z m-1527 2 c0 -5
-4 -10 -10 -10 -5 0 -10 5 -10 10 0 6 5 10 10 10 6 0 10 -4 10 -10z m10 -130
c0 -5 -5 -10 -11 -10 -5 0 -7 5 -4 10 3 6 8 10 11 10 2 0 4 -4 4 -10z m130
-10 c0 -21 -15 -27 -25 -10 -7 12 2 30 16 30 5 0 9 -9 9 -20z m80 -290 c13 -9
13 -11 0 -20 -22 -15 -30 -12 -30 10 0 22 8 25 30 10z m1067 4 c-3 -3 -12 -4
-19 -1 -8 3 -5 6 6 6 11 1 17 -2 13 -5z"/>
<path d="M2813 4140 c0 -25 2 -35 4 -22 2 12 2 32 0 45 -2 12 -4 2 -4 -23z"/>
<path d="M2901 4138 c1 -35 2 -38 8 -18 l7 25 9 -24 c7 -24 8 -24 21 -6 12 17
14 17 14 2 0 -9 5 -17 10 -17 6 0 10 18 10 40 0 46 -15 52 -32 13 l-11 -28
-10 28 c-16 40 -27 33 -26 -15z"/>
<path d="M3251 4164 c0 -11 3 -14 6 -6 3 7 2 16 -1 19 -3 4 -6 -2 -5 -13z"/>
<path d="M3271 4164 c0 -11 3 -14 6 -6 3 7 2 16 -1 19 -3 4 -6 -2 -5 -13z"/>
<path d="M3360 4140 l0 -40 45 0 c27 0 45 5 45 11 0 8 4 8 13 0 11 -8 14 -5
14 19 0 24 -3 27 -14 19 -9 -8 -13 -8 -13 0 0 6 -5 11 -11 11 -8 0 -8 -4 1
-15 6 -8 9 -19 5 -25 -8 -13 -65 -13 -65 0 0 6 9 10 20 10 11 0 20 5 20 10 0
6 -9 10 -20 10 -27 0 -25 18 3 23 16 3 13 5 -10 6 -32 1 -33 0 -33 -39z"/>
<path d="M4007 4173 c-8 -14 -19 -73 -13 -73 6 0 27 72 22 78 -2 2 -6 0 -9 -5z"/>
<path d="M4224 4146 c-9 -34 -10 -34 -34 -21 l-25 15 23 6 c12 3 22 10 22 15
0 5 -13 3 -30 -6 -16 -9 -30 -18 -30 -20 0 -4 67 -35 76 -35 2 0 7 17 11 38
l7 37 7 -40 6 -40 2 43 c1 52 -21 58 -35 8z"/>
<path d="M1006 4154 c-30 -17 -26 -28 14 -38 l25 -7 -25 15 -25 16 23 6 c12 3
22 10 22 15 0 11 1 11 -34 -7z"/>
<path d="M4300 4161 c0 -5 10 -12 23 -15 l22 -6 -25 -15 c-32 -18 -14 -19 19
-1 l25 14 -32 16 c-18 9 -32 12 -32 7z"/>
<path d="M810 4150 c-18 -11 -6 -25 30 -34 l25 -7 -24 14 c-23 14 -23 15 -5
25 14 8 15 11 4 12 -8 0 -22 -5 -30 -10z"/>
<path d="M892 4130 c0 -19 2 -27 5 -17 2 9 2 25 0 35 -3 9 -5 1 -5 -18z"/>
<path d="M940 4145 c18 -10 20 -14 8 -15 -9 0 -20 -4 -23 -10 -9 -15 8 -12 31
5 16 13 17 16 4 25 -8 5 -22 10 -30 9 -9 0 -5 -6 10 -14z"/>
<path d="M1052 4130 c-1 -27 3 -30 28 -30 26 0 28 2 21 28 -5 16 -15 28 -28
30 -16 2 -20 -3 -21 -28z m28 -10 c0 -5 -4 -10 -10 -10 -5 0 -10 5 -10 10 0 6
5 10 10 10 6 0 10 -4 10 -10z"/>
<path d="M1211 4128 c2 -28 2 -29 6 -8 3 14 10 28 17 32 7 5 5 8 -6 8 -14 0
-18 -8 -17 -32z"/>
<path d="M1247 4146 c-10 -25 3 -46 27 -45 16 1 17 2 4 6 -25 6 -22 23 3 23
26 0 20 24 -8 28 -11 2 -23 -4 -26 -12z"/>
<path d="M1517 4154 c-4 -4 -7 -18 -7 -31 0 -16 6 -23 19 -23 11 0 22 4 25 9
4 5 -3 7 -14 4 -11 -3 -20 0 -20 6 0 6 9 11 21 11 12 0 19 5 17 13 -5 14 -31
21 -41 11z m30 -10 c-3 -3 -12 -4 -19 -1 -8 3 -5 6 6 6 11 1 17 -2 13 -5z"/>
<path d="M1574 4129 c-1 -23 2 -27 12 -18 10 8 14 9 14 0 0 -6 5 -11 11 -11 8
0 8 5 -1 15 -10 12 -10 18 0 30 9 10 9 15 1 15 -6 0 -11 -5 -11 -11 0 -8 -4
-8 -12 -1 -10 8 -13 3 -14 -19z"/>
<path d="M1631 4113 c1 -27 3 -41 6 -32 2 10 13 19 24 22 13 3 19 14 19 31 0
21 -5 26 -25 26 -23 0 -25 -3 -24 -47z m39 17 c0 -11 -7 -20 -15 -20 -8 0 -15
9 -15 20 0 11 7 20 15 20 8 0 15 -9 15 -20z"/>
<path d="M1944 4145 c-9 -23 3 -45 26 -45 11 0 20 4 20 9 0 5 -8 8 -17 7 -10
0 -18 6 -18 14 0 8 8 14 18 14 9 -1 17 2 17 7 0 15 -40 10 -46 -6z"/>
<path d="M2007 4154 c-4 -4 -7 -18 -7 -31 0 -16 6 -23 19 -23 11 0 22 4 25 9
4 5 -3 7 -14 4 -11 -3 -20 0 -20 6 0 6 9 11 21 11 12 0 19 5 17 13 -5 14 -31
21 -41 11z m30 -10 c-3 -3 -12 -4 -19 -1 -8 3 -5 6 6 6 11 1 17 -2 13 -5z"/>
<path d="M2134 4145 c-9 -23 3 -45 25 -45 21 0 33 22 25 45 -4 8 -15 15 -25
15 -11 0 -22 -7 -25 -15z m36 -15 c0 -21 -15 -27 -25 -10 -7 12 2 30 16 30 5
0 9 -9 9 -20z"/>
<path d="M2201 4128 c2 -31 2 -31 6 -5 2 15 10 27 18 27 8 0 16 -12 18 -27 4
-26 4 -26 6 5 1 28 -2 32 -24 32 -22 0 -25 -4 -24 -32z"/>
<path d="M2264 4145 c-13 -32 23 -63 40 -36 4 5 -3 7 -14 4 -16 -4 -20 0 -20
17 0 17 4 21 20 17 11 -3 18 -1 14 4 -8 14 -34 11 -40 -6z"/>
<path d="M2342 4130 c0 -19 2 -27 5 -17 2 9 2 25 0 35 -3 9 -5 1 -5 -18z"/>
<path d="M2493 4153 c9 -2 23 -2 30 0 6 3 -1 5 -18 5 -16 0 -22 -2 -12 -5z"/>
<path d="M2620 4130 c0 -27 3 -31 23 -28 16 2 22 10 22 28 0 18 -6 26 -22 28
-20 3 -23 -1 -23 -28z m40 0 c0 -11 -7 -20 -15 -20 -8 0 -15 9 -15 20 0 11 7
20 15 20 8 0 15 -9 15 -20z"/>
<path d="M2747 4153 c-15 -15 -6 -45 15 -51 21 -5 21 -6 2 -13 -18 -7 -17 -8
4 -8 19 -1 22 4 22 39 0 32 -4 40 -18 40 -10 0 -22 -3 -25 -7z m33 -23 c0 -11
-4 -20 -9 -20 -14 0 -23 18 -16 30 10 17 25 11 25 -10z"/>
<path d="M2834 4145 c-9 -23 3 -45 26 -45 11 0 20 4 20 10 0 5 -7 7 -15 4 -8
-4 -15 -1 -15 5 0 6 9 11 20 11 13 0 18 5 14 15 -4 8 -15 15 -25 15 -11 0 -22
-7 -25 -15z"/>
<path d="M2994 4145 c-9 -23 3 -45 26 -45 11 0 20 4 20 10 0 5 -6 7 -14 4 -8
-3 -17 -1 -21 5 -3 7 2 11 14 11 12 0 21 7 21 15 0 8 -9 15 -20 15 -11 0 -23
-7 -26 -15z m33 -1 c-3 -3 -12 -4 -19 -1 -8 3 -5 6 6 6 11 1 17 -2 13 -5z"/>
<path d="M3314 4149 c18 -11 18 -12 -5 -26 l-24 -14 25 7 c26 7 47 21 39 28
-2 2 -15 7 -29 10 -22 6 -23 6 -6 -5z"/>
<path d="M3662 4130 c0 -19 2 -27 5 -17 2 9 2 25 0 35 -3 9 -5 1 -5 -18z"/>
<path d="M3684 4145 c-9 -23 3 -45 26 -45 11 0 20 4 20 10 0 5 -6 7 -14 4 -8
-3 -17 -1 -21 5 -3 7 2 11 14 11 12 0 21 7 21 15 0 8 -9 15 -20 15 -11 0 -23
-7 -26 -15z m33 -1 c-3 -3 -12 -4 -19 -1 -8 3 -5 6 6 6 11 1 17 -2 13 -5z"/>
<path d="M3751 4128 c2 -30 2 -31 6 -5 5 34 23 36 23 2 0 -14 5 -25 11 -25 6
0 9 12 7 28 -2 19 -9 28 -25 30 -20 3 -23 -1 -22 -30z"/>
<path d="M3810 4130 c0 -27 2 -28 50 -28 28 0 50 4 50 9 0 5 -7 6 -15 3 -8 -4
-15 -1 -15 5 0 6 9 11 20 11 12 0 17 5 14 14 -3 9 -22 14 -55 14 -47 0 -49 -1
-49 -28z m40 10 c13 -9 13 -11 0 -20 -22 -15 -30 -12 -30 10 0 22 8 25 30 10z"/>
<path d="M3940 4150 c-13 -9 -12 -12 4 -25 11 -8 25 -15 30 -15 6 0 3 7 -7 14
-18 14 -18 15 0 25 14 8 14 10 3 11 -8 0 -22 -5 -30 -10z"/>
<path d="M4033 4146 c3 -8 2 -18 -4 -21 -16 -10 0 -25 27 -25 22 0 25 4 22 28
-2 20 -9 28 -27 30 -18 3 -22 0 -18 -12z m27 -26 c0 -5 -4 -10 -10 -10 -5 0
-10 5 -10 10 0 6 5 10 10 10 6 0 10 -4 10 -10z"/>
<path d="M4110 4145 c18 -10 20 -14 8 -15 -9 0 -20 -4 -23 -10 -9 -15 8 -12
31 5 16 13 17 16 4 25 -8 5 -22 10 -30 9 -9 0 -5 -6 10 -14z"/>
<path d="M4282 4130 c0 -19 2 -27 5 -17 2 9 2 25 0 35 -3 9 -5 1 -5 -18z"/>
<path d="M2493 4123 c9 -2 25 -2 35 0 9 3 1 5 -18 5 -19 0 -27 -2 -17 -5z"/>
<path d="M1020 3980 c0 -22 5 -40 10 -40 6 0 10 18 10 40 0 22 -4 40 -10 40
-5 0 -10 -18 -10 -40z"/>
<path d="M1468 4008 c-2 -7 -1 -26 3 -43 7 -30 7 -30 8 -3 1 23 6 27 39 31
l37 4 -38 1 c-23 1 -36 6 -32 12 3 6 2 10 -3 10 -6 0 -12 -6 -14 -12z"/>
<path d="M1561 4004 c0 -11 3 -14 6 -6 3 7 2 16 -1 19 -3 4 -6 -2 -5 -13z"/>
<path d="M1581 4004 c0 -11 3 -14 6 -6 3 7 2 16 -1 19 -3 4 -6 -2 -5 -13z"/>
<path d="M2061 4004 c0 -11 3 -14 6 -6 3 7 2 16 -1 19 -3 4 -6 -2 -5 -13z"/>
<path d="M2081 4004 c0 -11 3 -14 6 -6 3 7 2 16 -1 19 -3 4 -6 -2 -5 -13z"/>
<path d="M2420 4006 c0 -9 -8 -12 -25 -8 -22 4 -25 1 -25 -27 0 -28 2 -30 35
-29 19 1 35 6 35 11 0 5 8 3 17 -4 17 -13 17 -13 0 13 -9 15 -17 34 -17 43 0
8 -4 15 -10 15 -5 0 -10 -6 -10 -14z m-10 -26 c13 -9 13 -11 0 -20 -22 -15
-30 -12 -30 10 0 22 8 25 30 10z"/>
<path d="M2540 4011 c0 -5 10 -11 23 -13 16 -2 23 -11 25 -30 5 -39 17 -35 16
4 -1 19 -7 32 -13 31 -6 -2 -11 2 -11 7 0 6 -9 10 -20 10 -11 0 -20 -4 -20 -9z"/>
<path d="M3186 4004 c-9 -23 -7 -57 4 -74 7 -11 8 -5 4 20 -2 19 0 42 6 50 16
24 32 -7 26 -50 -4 -25 -3 -31 4 -20 21 33 8 90 -20 90 -10 0 -21 -7 -24 -16z"/>
<path d="M3844 3990 c-7 -31 -18 -36 -43 -21 -11 7 -10 11 5 20 14 8 15 10 4
11 -24 0 -46 -18 -35 -28 18 -15 64 -31 68 -24 9 14 18 72 13 72 -4 0 -9 -13
-12 -30z"/>
<path d="M4077 4013 c-8 -14 -19 -73 -13 -73 3 0 10 15 15 33 l9 32 1 -32 c1
-48 21 -41 21 7 0 28 -4 40 -14 40 -8 0 -17 -3 -19 -7z"/>
<path d="M1976 4002 c-3 -5 -17 -7 -31 -4 -22 4 -25 1 -25 -26 0 -29 2 -31 38
-29 34 1 37 3 36 29 -1 31 -9 44 -18 30z m-16 -22 c13 -9 13 -11 0 -20 -22
-15 -30 -12 -30 10 0 22 8 25 30 10z"/>
<path d="M3930 4001 c0 -5 10 -12 23 -15 l22 -6 -25 -14 c-23 -13 -25 -13 -30
7 -3 12 -15 23 -26 25 -17 2 -21 -3 -22 -28 -1 -25 3 -30 23 -30 14 0 40 8 59
17 29 14 40 14 62 4 15 -6 29 -9 32 -7 3 3 -6 10 -19 14 l-24 9 23 7 c12 4 22
12 22 17 0 5 -13 3 -30 -6 -27 -14 -33 -14 -60 0 -16 9 -30 11 -30 6z m-30
-41 c0 -5 -4 -10 -10 -10 -5 0 -10 5 -10 10 0 6 5 10 10 10 6 0 10 -4 10 -10z"/>
<path d="M970 3990 c-13 -9 -12 -12 4 -25 11 -8 25 -15 30 -15 6 0 3 7 -7 14
-18 14 -18 15 0 25 14 8 14 10 3 11 -8 0 -22 -5 -30 -10z"/>
<path d="M1052 3970 c0 -19 2 -27 5 -17 2 9 2 25 0 35 -3 9 -5 1 -5 -18z"/>
<path d="M1094 3988 c18 -10 18 -11 -5 -24 -16 -9 -19 -13 -8 -14 8 0 24 7 35
15 16 13 17 16 4 25 -8 5 -22 10 -30 10 -11 -1 -10 -4 4 -12z"/>
<path d="M1150 3990 c-19 -12 -7 -23 39 -39 57 -19 73 -15 69 17 -2 20 -9 28
-27 30 -18 3 -22 0 -18 -12 8 -20 -8 -29 -35 -20 -21 6 -21 7 -3 20 22 16 0
20 -25 4z m90 -30 c0 -5 -4 -10 -10 -10 -5 0 -10 5 -10 10 0 6 5 10 10 10 6 0
10 -4 10 -10z"/>
<path d="M1404 3985 c-9 -23 3 -45 26 -45 11 0 20 4 20 10 0 5 -7 7 -15 4 -8
-4 -15 -1 -15 5 0 6 9 11 20 11 13 0 18 5 14 15 -4 8 -15 15 -25 15 -11 0 -22
-7 -25 -15z"/>
<path d="M1731 3968 c1 -22 3 -26 6 -13 3 11 10 26 15 33 8 9 6 12 -6 12 -12
0 -16 -9 -15 -32z"/>
<path d="M1767 3986 c-10 -26 4 -47 27 -44 15 2 21 10 21 28 0 29 -38 41 -48
16z m38 -16 c0 -7 -6 -15 -12 -17 -8 -3 -13 4 -13 17 0 13 5 20 13 18 6 -3 12
-11 12 -18z"/>
<path d="M1828 3960 c-2 -22 0 -40 4 -40 5 0 8 18 8 40 0 22 -2 40 -4 40 -2 0
-6 -18 -8 -40z"/>
<path d="M1857 3986 c-10 -25 3 -46 27 -45 16 1 17 2 4 6 -25 6 -22 23 3 23
26 0 20 24 -8 28 -11 2 -23 -4 -26 -12z"/>
<path d="M2264 3985 c-13 -32 23 -63 40 -36 4 5 -3 7 -14 4 -16 -4 -20 0 -20
17 0 17 4 21 20 17 11 -3 18 -1 14 4 -8 14 -34 11 -40 -6z"/>
<path d="M2342 3970 c0 -19 2 -27 5 -17 2 9 2 25 0 35 -3 9 -5 1 -5 -18z"/>
<path d="M2493 3993 c9 -2 23 -2 30 0 6 3 -1 5 -18 5 -16 0 -22 -2 -12 -5z"/>
<path d="M2620 3970 c0 -27 3 -31 23 -28 16 2 22 10 22 28 0 18 -6 26 -22 28
-20 3 -23 -1 -23 -28z m40 0 c0 -11 -7 -20 -15 -20 -8 0 -15 9 -15 20 0 11 7
20 15 20 8 0 15 -9 15 -20z"/>
<path d="M2994 3985 c-9 -23 3 -45 26 -45 11 0 20 4 20 10 0 5 -6 7 -14 4 -8
-3 -17 -1 -21 5 -3 7 2 11 14 11 12 0 21 7 21 15 0 8 -9 15 -20 15 -11 0 -23
-7 -26 -15z m33 -1 c-3 -3 -12 -4 -19 -1 -8 3 -5 6 6 6 11 1 17 -2 13 -5z"/>
<path d="M3050 3970 c0 -16 5 -30 10 -30 6 0 10 11 10 25 0 34 18 32 23 -2 4
-26 4 -26 6 5 1 28 -2 32 -24 32 -21 0 -25 -5 -25 -30z"/>
<path d="M3121 3973 c-1 -29 2 -33 24 -33 21 0 25 5 25 30 0 17 -4 30 -10 30
-5 0 -10 -11 -10 -25 0 -34 -18 -32 -23 3 -4 25 -4 25 -6 -5z"/>
<path d="M3441 3966 c2 -30 2 -30 6 -3 5 33 20 36 25 5 4 -27 42 -37 51 -14
12 30 -3 45 -44 44 -37 0 -39 -2 -38 -32z m69 4 c0 -11 -4 -20 -9 -20 -14 0
-23 18 -16 30 10 17 25 11 25 -10z"/>
<path d="M3538 3960 c-2 -22 0 -40 4 -40 5 0 8 18 8 40 0 22 -2 40 -4 40 -2 0
-6 -18 -8 -40z"/>
<path d="M4122 3970 c0 -19 2 -27 5 -17 2 9 2 25 0 35 -3 9 -5 1 -5 -18z"/>
<path d="M4164 3989 c18 -11 18 -12 -5 -26 l-24 -14 25 7 c26 7 47 21 39 28
-2 2 -15 7 -29 10 -22 6 -23 6 -6 -5z"/>
<path d="M1503 3963 c9 -2 25 -2 35 0 9 3 1 5 -18 5 -19 0 -27 -2 -17 -5z"/>
<path d="M2493 3963 c9 -2 25 -2 35 0 9 3 1 5 -18 5 -19 0 -27 -2 -17 -5z"/>
<path d="M843 3830 c0 -25 2 -35 4 -22 2 12 2 32 0 45 -2 12 -4 2 -4 -23z"/>
<path d="M1122 3830 c1 -29 2 -35 5 -17 5 34 23 36 23 2 0 -14 5 -25 10 -25
18 0 11 50 -7 57 -10 4 -21 11 -25 17 -4 6 -7 -9 -6 -34z"/>
<path d="M1370 3860 c0 -5 9 -10 20 -10 11 0 20 5 20 10 0 6 -9 10 -20 10 -11
0 -20 -4 -20 -10z"/>
<path d="M1430 3863 c0 -23 2 -28 11 -25 5 1 9 -3 9 -9 0 -6 -7 -9 -15 -6 -19
8 -26 -5 -14 -23 6 -10 9 -11 9 -2 0 6 5 12 11 12 5 0 7 -6 3 -12 -6 -10 -3
-9 8 0 9 8 14 20 11 28 -3 8 0 14 6 14 6 0 11 -11 11 -25 0 -14 6 -25 13 -25
7 0 12 13 11 32 -1 24 -6 33 -18 32 -9 -1 -16 3 -16 10 0 6 -5 4 -10 -4 -9
-13 -11 -13 -20 0 -6 10 -10 11 -10 3z"/>
<path d="M2041 3854 c0 -11 3 -14 6 -6 3 7 2 16 -1 19 -3 4 -6 -2 -5 -13z"/>
<path d="M2281 3833 c-1 -33 -6 -45 -23 -54 -13 -6 -42 -27 -65 -45 -23 -19
-45 -34 -50 -34 -10 -1 -82 -112 -105 -162 -30 -66 -40 -118 -39 -204 0 -74
-2 -83 -20 -87 -32 -9 -21 -51 13 -55 20 -2 30 -10 34 -27 3 -13 12 -29 20
-36 19 -15 18 -30 -1 -23 -12 5 -15 -2 -15 -30 0 -24 5 -36 14 -36 9 0 12 8 8
25 -2 14 0 25 4 25 15 0 36 60 30 85 -3 13 -2 35 4 49 6 17 6 26 0 26 -6 0
-10 -8 -11 -17 0 -15 -2 -15 -9 2 -15 36 -11 179 7 236 18 56 93 175 105 168
4 -2 15 7 25 21 l17 24 7 -24 c6 -23 7 -23 8 7 1 29 7 35 64 62 124 60 266 62
385 5 48 -23 52 -28 52 -60 0 -28 4 -34 23 -35 21 -1 21 -1 -3 -9 l-25 -8 23
-1 c16 -1 26 6 29 18 5 18 8 17 39 -12 54 -48 104 -158 111 -243 5 -68 -6
-188 -14 -151 -3 10 -14 17 -29 17 -20 0 -24 -5 -24 -30 0 -16 5 -30 10 -30 6
0 10 11 10 25 0 34 20 32 21 -2 3 -84 4 -88 24 -88 13 0 25 11 34 32 10 22 22
33 39 35 33 4 39 24 10 34 -22 7 -22 7 -3 15 17 6 17 8 3 8 -16 1 -18 12 -18
85 0 98 -24 187 -70 259 -16 26 -30 60 -29 75 l1 27 10 -27 c5 -16 13 -28 18
-28 4 0 11 12 16 28 l7 27 7 -30 c7 -28 8 -27 9 13 1 46 -15 57 -25 17 -3 -14
-10 -25 -14 -25 -4 0 -11 11 -14 25 -9 36 -26 31 -27 -7 0 -30 -1 -31 -9 -10
-5 12 -14 22 -19 22 -6 0 -33 17 -60 38 -46 33 -51 41 -51 75 0 34 -3 38 -22
35 -14 -2 -25 -13 -29 -28 l-7 -25 -1 28 c-1 20 -6 27 -21 27 -10 0 -23 -7
-28 -16 -8 -15 -10 -15 -15 0 -7 19 -47 22 -47 4 0 -7 -5 -5 -11 5 -8 14 -14
16 -24 7 -9 -8 -29 -9 -55 -5 -28 5 -46 3 -57 -7 -14 -11 -16 -11 -8 2 8 13 7
13 -8 1 -15 -12 -17 -11 -17 8 0 11 -4 21 -10 21 -5 0 -10 -11 -10 -25 0 -18
-5 -25 -20 -25 -11 0 -20 5 -20 11 0 6 7 9 15 5 8 -3 15 -1 15 4 0 20 -39 9
-46 -12 l-8 -23 -7 25 c-7 25 -7 24 -9 -5 -3 -27 -3 -27 -10 10 l-7 40 -2 -42z
m336 1 c-3 -3 -12 -4 -19 -1 -8 3 -5 6 6 6 11 1 17 -2 13 -5z m61 -13 c3 -8
-1 -12 -9 -9 -7 2 -15 10 -17 17 -3 8 1 12 9 9 7 -2 15 -10 17 -17z m62 -1 c0
-11 -4 -20 -9 -20 -14 0 -23 18 -16 30 10 17 25 11 25 -10z m35 -150 c0 -7 -6
-15 -12 -17 -8 -3 -13 4 -13 17 0 13 5 20 13 18 6 -3 12 -11 12 -18z m-775
-450 c0 -11 -7 -20 -15 -20 -8 0 -15 9 -15 20 0 11 7 20 15 20 8 0 15 -9 15
-20z m1020 -10 c13 -8 13 -10 -2 -10 -9 0 -20 5 -23 10 -8 13 5 13 25 0z"/>
<path d="M2500 3860 c0 -5 9 -10 20 -10 11 0 20 5 20 10 0 6 -9 10 -20 10 -11
0 -20 -4 -20 -10z"/>
<path d="M2773 3830 c0 -25 2 -35 4 -22 2 12 2 32 0 45 -2 12 -4 2 -4 -23z"/>
<path d="M2857 3863 c-11 -10 -8 -73 3 -73 6 0 10 10 11 23 l0 22 10 -23 c10
-25 28 -21 30 6 1 11 4 8 9 -8 7 -21 8 -17 9 20 0 42 -1 44 -14 26 -8 -11 -15
-27 -15 -35 -1 -9 -7 -1 -15 17 -15 34 -18 36 -28 25z"/>
<path d="M3146 3854 c-9 -23 -7 -57 4 -74 7 -11 8 -5 4 20 -2 19 0 42 6 50 16
24 32 -7 26 -50 -4 -25 -3 -31 4 -20 21 33 8 90 -20 90 -10 0 -21 -7 -24 -16z"/>
<path d="M3211 3854 c0 -11 3 -14 6 -6 3 7 2 16 -1 19 -3 4 -6 -2 -5 -13z"/>
<path d="M3231 3854 c0 -11 3 -14 6 -6 3 7 2 16 -1 19 -3 4 -6 -2 -5 -13z"/>
<path d="M3869 3833 c-2 -32 -3 -33 -6 -10 -6 39 -45 34 -50 -5 -3 -27 -2 -28
37 -28 l40 0 0 40 c0 51 -19 53 -21 3z m-22 1 c-3 -3 -12 -4 -19 -1 -8 3 -5 6
6 6 11 1 17 -2 13 -5z m-2 -24 c-3 -5 -11 -10 -16 -10 -6 0 -7 5 -4 10 3 6 11
10 16 10 6 0 7 -4 4 -10z"/>
<path d="M4026 3836 c-6 -32 -8 -33 -31 -22 -24 11 -24 11 -5 20 11 5 20 13
20 18 0 5 -14 1 -32 -8 l-32 -16 35 -19 c19 -10 37 -18 40 -19 4 0 11 18 17
40 5 22 6 40 2 40 -4 0 -11 -15 -14 -34z"/>
<path d="M4254 3838 c-9 -36 -10 -36 -34 -23 l-25 15 23 6 c12 3 22 10 22 15
0 5 -14 2 -31 -7 -33 -17 -31 -23 14 -42 25 -11 28 -10 38 15 5 14 8 34 6 42
-2 9 -7 -1 -13 -21z"/>
<path d="M4283 3830 c0 -25 2 -35 4 -22 2 12 2 32 0 45 -2 12 -4 2 -4 -23z"/>
<path d="M796 3844 c-30 -17 -26 -28 14 -38 l25 -7 -25 15 -25 16 23 6 c12 3
22 10 22 15 0 11 1 11 -34 -7z"/>
<path d="M976 3843 l-30 -16 28 -14 c15 -8 30 -12 33 -9 3 3 -5 10 -18 14
l-24 9 23 7 c12 4 22 12 22 17 0 11 1 11 -34 -8z"/>
<path d="M1630 3826 c0 -32 3 -36 25 -36 21 0 25 5 25 30 0 17 -4 30 -9 30 -5
0 -16 3 -25 6 -13 5 -16 -1 -16 -30z m27 -18 c-3 -7 -5 -2 -5 12 0 14 2 19 5
13 2 -7 2 -19 0 -25z"/>
<path d="M3508 3855 c-6 -7 3 -65 11 -65 7 0 7 58 -1 65 -2 3 -7 3 -10 0z"/>
<path d="M4330 3851 c0 -5 10 -12 23 -15 l22 -6 -25 -15 c-32 -18 -14 -19 19
-1 l25 14 -32 16 c-18 9 -32 12 -32 7z"/>
<path d="M860 3820 c0 -16 5 -30 10 -30 6 0 10 14 10 30 0 17 -4 30 -10 30 -5
0 -10 -13 -10 -30z"/>
<path d="M910 3835 c18 -10 20 -14 8 -15 -9 0 -20 -4 -23 -10 -9 -15 8 -12 31
5 16 13 17 16 4 25 -8 5 -22 10 -30 9 -9 0 -5 -6 10 -14z"/>
<path d="M1029 3848 c0 -2 -3 -15 -5 -30 -4 -25 -2 -28 24 -28 26 0 28 3 24
30 -3 21 -10 30 -23 30 -11 0 -19 -1 -20 -2z m28 -14 c-3 -3 -12 -4 -19 -1 -8
3 -5 6 6 6 11 1 17 -2 13 -5z m-2 -24 c-3 -5 -11 -10 -16 -10 -6 0 -7 5 -4 10
3 6 11 10 16 10 6 0 7 -4 4 -10z"/>
<path d="M1181 3818 c1 -22 3 -26 6 -13 3 11 10 26 15 33 8 9 6 12 -6 12 -12
0 -16 -9 -15 -32z"/>
<path d="M1691 3818 c2 -31 2 -31 6 -5 5 34 23 36 23 2 0 -14 5 -25 10 -25 6
0 10 11 10 25 0 34 18 32 23 -2 4 -26 4 -26 6 5 1 31 0 32 -39 32 -39 0 -40
-1 -39 -32z"/>
<path d="M1784 3835 c-9 -23 3 -45 25 -45 21 0 33 22 25 45 -4 8 -15 15 -25
15 -11 0 -22 -7 -25 -15z m36 -15 c0 -21 -15 -27 -25 -10 -7 12 2 30 16 30 5
0 9 -9 9 -20z"/>
<path d="M2094 3835 c-9 -23 3 -45 25 -45 21 0 33 22 25 45 -4 8 -15 15 -25
15 -11 0 -22 -7 -25 -15z m36 -15 c0 -21 -15 -27 -25 -10 -7 12 2 30 16 30 5
0 9 -9 9 -20z"/>
<path d="M2161 3818 c2 -30 2 -31 6 -5 5 34 23 36 23 2 0 -14 5 -25 11 -25 6
0 9 12 7 28 -2 19 -9 28 -25 30 -20 3 -23 -1 -22 -30z"/>
<path d="M2220 3820 c0 -23 5 -30 19 -30 11 0 23 5 27 11 4 8 0 9 -15 4 -17
-5 -21 -2 -21 15 0 17 4 20 21 15 15 -5 19 -4 15 4 -4 6 -16 11 -27 11 -14 0
-19 -7 -19 -30z"/>
<path d="M2794 3835 c-9 -23 3 -45 26 -45 11 0 20 4 20 10 0 5 -6 7 -14 4 -8
-3 -17 -1 -21 5 -3 7 2 11 14 11 12 0 21 7 21 15 0 8 -9 15 -20 15 -11 0 -23
-7 -26 -15z m33 -1 c-3 -3 -12 -4 -19 -1 -8 3 -5 6 6 6 11 1 17 -2 13 -5z"/>
<path d="M3274 3839 c18 -11 18 -12 -5 -26 l-24 -14 25 7 c26 7 47 21 39 28
-2 2 -15 7 -29 10 -22 6 -23 6 -6 -5z"/>
<path d="M3542 3820 c0 -19 2 -27 5 -17 2 9 2 25 0 35 -3 9 -5 1 -5 -18z"/>
<path d="M3571 3818 c2 -30 2 -31 6 -5 2 15 9 27 14 27 5 0 9 -12 10 -27 1
-26 1 -27 7 -5 4 13 12 23 17 23 6 0 13 -10 17 -23 6 -19 7 -18 5 7 -2 27 -6
30 -39 33 -37 3 -38 2 -37 -30z"/>
<path d="M3792 3820 c0 -19 2 -27 5 -17 2 9 2 25 0 35 -3 9 -5 1 -5 -18z"/>
<path d="M3900 3839 c0 -7 8 -18 18 -26 16 -14 16 -14 0 -9 -10 3 -18 1 -18
-4 0 -13 37 -13 45 -1 3 5 -4 16 -16 24 -19 14 -20 15 -2 20 15 4 14 5 -4 6
-13 0 -23 -4 -23 -10z"/>
<path d="M4056 3828 c-3 -13 -6 -26 -6 -30 0 -13 48 -9 85 6 38 16 44 30 19
40 -27 10 -39 7 -20 -7 17 -12 16 -14 -8 -25 -24 -11 -26 -10 -26 13 0 33 -35
35 -44 3z m34 -18 c0 -5 -7 -10 -16 -10 -8 0 -12 5 -9 10 3 6 10 10 16 10 5 0
9 -4 9 -10z"/>
<path d="M4312 3820 c0 -19 2 -27 5 -17 2 9 2 25 0 35 -3 9 -5 1 -5 -18z"/>
<path d="M1323 3813 c9 -2 25 -2 35 0 9 3 1 5 -18 5 -19 0 -27 -2 -17 -5z"/>
<path d="M1053 3680 c0 -25 2 -35 4 -22 2 12 2 32 0 45 -2 12 -4 2 -4 -23z"/>
<path d="M1332 3680 c1 -29 2 -35 5 -17 5 34 23 36 23 2 0 -14 5 -25 10 -25
18 0 11 50 -7 57 -10 4 -21 11 -25 17 -4 6 -7 -9 -6 -34z"/>
<path d="M1591 3704 c0 -11 3 -14 6 -6 3 7 2 16 -1 19 -3 4 -6 -2 -5 -13z"/>
<path d="M1611 3704 c0 -11 3 -14 6 -6 3 7 2 16 -1 19 -3 4 -6 -2 -5 -13z"/>
<path d="M1640 3713 c0 -23 2 -28 11 -25 5 1 9 -3 9 -9 0 -6 -7 -9 -15 -6 -19
8 -26 -5 -14 -23 6 -10 9 -11 9 -2 0 6 5 12 11 12 5 0 7 -6 3 -12 -5 -10 -4
-10 6 -1 7 7 15 27 17 45 2 25 0 29 -7 18 -9 -13 -11 -13 -20 0 -6 10 -10 11
-10 3z"/>
<path d="M2050 3709 c0 -5 -4 -8 -9 -4 -5 3 -12 1 -15 -3 -3 -5 -17 -7 -31 -4
-22 4 -25 1 -25 -27 0 -24 4 -31 19 -31 11 0 23 5 27 11 4 8 0 9 -15 4 -16 -5
-21 -2 -21 13 0 15 6 20 25 18 19 -1 25 -7 25 -23 0 -13 4 -23 8 -23 4 0 8 12
7 28 0 21 5 28 23 30 27 4 29 22 2 22 -11 0 -20 -5 -20 -11z"/>
<path d="M2313 3680 c0 -25 2 -35 4 -22 2 12 2 32 0 45 -2 12 -4 2 -4 -23z"/>
<path d="M2421 3690 c-1 -30 -5 -36 -26 -38 -19 -1 -25 3 -25 19 0 17 5 20 21
16 16 -4 19 -3 11 5 -6 6 -18 8 -28 4 -12 -5 -15 -14 -10 -36 5 -27 2 -32 -33
-49 -78 -40 -149 -155 -153 -247 -2 -61 12 -174 21 -174 4 0 21 -20 38 -44 22
-31 29 -51 26 -70 -5 -22 -1 -28 16 -33 19 -5 21 -10 15 -42 -4 -20 -12 -43
-19 -51 -7 -8 -12 -33 -12 -55 2 -67 -10 -95 -38 -95 -22 0 -25 -4 -24 -32 2
-31 2 -31 6 -5 5 30 33 38 33 9 0 -10 -5 -44 -11 -75 -11 -55 -12 -56 -40 -50
-28 5 -29 4 -28 -28 2 -31 2 -31 6 -6 2 15 8 27 12 27 10 0 23 -72 17 -92 -2
-7 -7 -25 -10 -39 -5 -22 -10 -25 -31 -21 -22 4 -25 1 -25 -27 0 -25 4 -31 21
-31 15 0 19 -5 15 -17 -15 -54 -266 -1224 -266 -1242 0 -27 27 -39 45 -20 12
12 322 1406 326 1463 0 6 4 2 9 -9 6 -14 9 -3 10 40 0 33 7 83 14 110 13 47
14 48 18 20 3 -19 5 -11 5 20 0 82 3 106 12 101 4 -3 11 26 14 65 3 39 8 73 9
75 2 2 24 -4 48 -12 49 -17 162 -14 199 5 23 13 27 9 36 -42 6 -30 4 -37 -9
-37 -11 0 -16 -9 -16 -30 0 -25 4 -30 24 -30 21 0 25 -6 32 -42 5 -24 7 -54 6
-66 -2 -13 2 -30 9 -38 9 -11 9 -14 -2 -14 -9 0 -8 -3 3 -12 19 -16 32 -65 18
-73 -16 -10 -12 -45 6 -52 13 -5 13 -7 2 -14 -10 -7 -9 -9 3 -9 20 0 30 -41
22 -98 -5 -36 -3 -42 13 -43 18 0 18 -1 -1 -9 -17 -7 -17 -9 -3 -9 21 -1 4 68
157 -637 l128 -589 -72 -12 c-87 -14 -113 -26 -121 -57 -12 -48 -1 -70 45 -93
25 -13 50 -28 55 -33 9 -9 16 -95 17 -205 0 -57 8 -71 47 -89 73 -33 103 -12
117 84 4 24 9 48 11 51 2 4 6 38 8 75 3 52 8 71 21 79 97 56 125 149 54 174
-18 6 -46 11 -63 11 -17 0 -36 4 -43 8 -7 4 -71 278 -143 607 -71 330 -132
610 -135 623 -4 18 -1 22 17 23 17 1 19 2 6 6 -25 6 -22 23 3 23 27 0 19 24
-9 28 -13 2 -22 -2 -23 -10 -1 -14 -14 26 -28 83 -8 34 -7 35 15 31 13 -2 24
1 24 7 0 5 -6 8 -14 5 -8 -3 -17 -1 -21 5 -3 7 2 11 14 11 12 0 21 7 21 15 0
17 -31 20 -47 4 -7 -7 -12 2 -17 33 -4 27 -3 44 4 46 5 2 10 21 10 43 0 32 -3
39 -20 39 -22 0 -40 50 -40 111 0 19 -4 39 -9 45 -4 5 -11 21 -15 37 -5 20 -3
27 9 27 11 0 15 11 15 40 0 30 10 54 40 99 22 32 41 69 41 82 1 15 5 9 9 -16
5 -23 6 5 3 65 -3 58 -11 126 -19 152 -21 67 -76 132 -142 171 -42 25 -58 39
-59 58 l-2 24 7 -25 c5 -15 17 -26 30 -28 19 -3 22 1 22 28 0 29 -3 32 -25 28
-14 -3 -28 -1 -31 3 -11 19 -24 7 -24 -22 0 -28 -2 -31 -22 -23 -13 4 -42 8
-66 8 -52 1 -50 19 4 27 l39 6 -42 2 c-24 0 -45 -4 -49 -11 -6 -9 -10 -5 -15
12 -6 22 -7 21 -8 -10z m229 -20 c0 -11 -7 -20 -15 -20 -8 0 -15 9 -15 20 0
11 7 20 15 20 8 0 15 -9 15 -20z m-83 -193 c17 -9 41 -29 52 -43 26 -33 46
-97 37 -119 -10 -27 -39 -13 -48 24 -17 65 -66 111 -116 111 -22 0 -47 25 -38
38 8 14 77 7 113 -11z m-268 -396 c16 -10 6 -31 -15 -31 -8 0 -14 9 -14 20 0
22 7 25 29 11z m419 -12 c-2 -6 -8 -10 -13 -10 -5 0 -11 4 -13 10 -2 6 4 11
13 11 9 0 15 -5 13 -11z m-58 -149 c0 -11 -7 -20 -15 -20 -8 0 -15 9 -15 20 0
11 7 20 15 20 8 0 15 -9 15 -20z m120 -150 c0 -11 -4 -20 -10 -20 -5 0 -10 9
-10 20 0 11 5 20 10 20 6 0 10 -9 10 -20z m47 -136 c-3 -3 -12 -4 -19 -1 -8 3
-5 6 6 6 11 1 17 -2 13 -5z m-97 -25 c0 -6 -4 -7 -10 -4 -5 3 -10 11 -10 16 0
6 5 7 10 4 6 -3 10 -11 10 -16z m-560 -149 c0 -11 -7 -20 -15 -20 -8 0 -15 9
-15 20 0 11 7 20 15 20 8 0 15 -9 15 -20z m587 -12 c-3 -7 -5 -2 -5 12 0 14 2
19 5 13 2 -7 2 -19 0 -25z m483 -1333 c0 -8 -6 -14 -12 -12 -7 1 -14 -8 -16
-20 -3 -21 -8 -23 -77 -23 l-74 0 6 -52 c3 -29 10 -55 14 -58 4 -3 11 -25 15
-48 5 -33 3 -43 -10 -48 -17 -7 -23 -54 -6 -54 6 0 10 -22 10 -50 0 -43 -3
-50 -20 -50 -11 0 -20 7 -20 15 0 10 -11 15 -35 15 -24 0 -35 5 -35 15 0 9 9
15 25 15 23 0 24 3 22 50 -2 40 -5 50 -19 50 -12 0 -18 8 -18 25 0 19 5 25 21
25 19 0 20 4 14 51 -6 42 -4 52 11 64 18 13 17 14 -9 24 -16 6 -57 11 -92 11
-35 0 -66 4 -69 9 -3 4 0 20 7 35 l12 26 178 0 c151 0 177 -2 177 -15z"/>
<path d="M2541 3704 c0 -11 3 -14 6 -6 3 7 2 16 -1 19 -3 4 -6 -2 -5 -13z"/>
<path d="M2561 3704 c0 -11 3 -14 6 -6 3 7 2 16 -1 19 -3 4 -6 -2 -5 -13z"/>
<path d="M3251 3704 c0 -11 3 -14 6 -6 3 7 2 16 -1 19 -3 4 -6 -2 -5 -13z"/>
<path d="M3271 3704 c0 -11 3 -14 6 -6 3 7 2 16 -1 19 -3 4 -6 -2 -5 -13z"/>
<path d="M3362 3708 c-25 -25 -6 -68 29 -68 10 0 20 4 23 8 3 5 -5 8 -17 8
-17 -1 -22 5 -22 24 0 20 4 25 23 23 13 -2 21 1 17 7 -8 14 -38 13 -53 -2z"/>
<path d="M4046 3688 c-8 -35 -9 -36 -33 -25 -23 10 -24 12 -7 24 13 10 14 13
3 13 -8 0 -21 -5 -29 -10 -17 -11 -9 -20 33 -38 25 -11 28 -10 38 15 5 14 8
34 6 42 -2 9 -7 -1 -11 -21z"/>
<path d="M4073 3680 c0 -25 2 -35 4 -22 2 12 2 32 0 45 -2 12 -4 2 -4 -23z"/>
<path d="M1006 3694 c-30 -17 -26 -28 14 -38 l25 -7 -25 15 -25 16 23 6 c12 3
22 10 22 15 0 11 1 11 -34 -7z"/>
<path d="M3560 3676 c0 -36 0 -36 43 -36 43 0 43 1 39 30 -6 39 -34 40 -50 3
l-11 -28 2 29 c1 16 -4 31 -10 33 -9 3 -13 -7 -13 -31z m70 -16 c0 -5 -7 -10
-16 -10 -8 0 -12 5 -9 10 3 6 10 10 16 10 5 0 9 -4 9 -10z"/>
<path d="M1070 3670 c0 -16 5 -30 10 -30 6 0 10 14 10 30 0 17 -4 30 -10 30
-5 0 -10 -13 -10 -30z"/>
<path d="M1391 3668 c1 -22 3 -26 6 -13 3 11 10 26 15 33 8 9 6 12 -6 12 -12
0 -16 -9 -15 -32z"/>
<path d="M1694 3685 c-13 -32 23 -63 40 -36 4 5 -3 7 -14 4 -16 -4 -20 0 -20
17 0 17 4 21 20 17 11 -3 18 -1 14 4 -8 14 -34 11 -40 -6z"/>
<path d="M2254 3685 c-9 -23 3 -45 26 -45 11 0 20 4 20 9 0 5 -8 8 -17 7 -10
0 -18 6 -18 14 0 8 8 14 18 14 9 -1 17 2 17 7 0 15 -40 10 -46 -6z"/>
<path d="M2342 3670 c0 -19 2 -27 5 -17 2 9 2 25 0 35 -3 9 -5 1 -5 -18z"/>
<path d="M2675 3680 c-8 -25 1 -40 23 -41 14 0 13 -2 -3 -10 -18 -8 -18 -8 5
-6 21 2 25 8 28 40 3 34 1 37 -22 37 -16 0 -27 -7 -31 -20z m35 -10 c0 -11 -4
-20 -10 -20 -5 0 -10 9 -10 20 0 11 5 20 10 20 6 0 10 -9 10 -20z"/>
<path d="M2984 3685 c-9 -23 3 -45 26 -45 11 0 20 4 20 10 0 5 -7 7 -15 4 -8
-4 -15 -1 -15 5 0 6 9 11 20 11 13 0 18 5 14 15 -4 8 -15 15 -25 15 -11 0 -22
-7 -25 -15z"/>
<path d="M3051 3668 c2 -30 2 -31 6 -5 5 34 23 36 23 2 0 -14 5 -25 11 -25 6
0 9 12 7 28 -2 19 -9 28 -25 30 -20 3 -23 -1 -22 -30z"/>
<path d="M3310 3685 c18 -10 20 -14 8 -15 -9 0 -20 -4 -23 -10 -9 -15 8 -12
31 5 16 13 17 16 4 25 -8 5 -22 10 -30 9 -9 0 -5 -6 10 -14z"/>
<path d="M3656 3685 c-8 -23 4 -45 25 -45 10 0 19 4 19 10 0 5 -7 7 -15 4 -11
-4 -15 0 -15 16 0 16 4 20 15 16 8 -3 15 -1 15 4 0 16 -37 11 -44 -5z"/>
<path d="M3846 3678 c-3 -13 -6 -26 -6 -30 0 -13 48 -9 85 6 38 16 44 30 19
40 -27 10 -39 7 -20 -7 17 -12 16 -14 -8 -25 -24 -11 -26 -10 -26 13 0 33 -35
35 -44 3z m34 -18 c0 -5 -7 -10 -16 -10 -8 0 -12 5 -9 10 3 6 10 10 16 10 5 0
9 -4 9 -10z"/>
<path d="M4090 3670 c0 -16 5 -30 10 -30 6 0 10 14 10 30 0 17 -4 30 -10 30
-5 0 -10 -13 -10 -30z"/>
<path d="M4140 3685 c18 -10 20 -14 8 -15 -9 0 -20 -4 -23 -10 -9 -15 8 -12
31 5 16 13 17 16 4 25 -8 5 -22 10 -30 9 -9 0 -5 -6 10 -14z"/>
<path d="M1627 3263 c-8 -14 -19 -73 -13 -73 6 0 27 72 22 78 -2 2 -6 0 -9 -5z"/>
<path d="M3082 3230 c0 -33 2 -39 7 -21 9 35 29 37 34 4 4 -27 4 -27 6 5 1 25
-3 32 -18 32 -11 0 -22 6 -24 13 -3 6 -5 -8 -5 -33z"/>
<path d="M3421 3254 c0 -11 3 -14 6 -6 3 7 2 16 -1 19 -3 4 -6 -2 -5 -13z"/>
<path d="M3441 3254 c0 -11 3 -14 6 -6 3 7 2 16 -1 19 -3 4 -6 -2 -5 -13z"/>
<path d="M1916 3244 c-30 -17 -26 -28 14 -38 l25 -7 -25 15 -25 16 23 6 c12 3
22 10 22 15 0 11 1 11 -34 -7z"/>
<path d="M1560 3240 c-13 -9 -12 -12 4 -25 11 -8 25 -15 30 -15 6 0 3 7 -7 14
-18 14 -18 15 0 25 14 8 14 10 3 11 -8 0 -22 -5 -30 -10z"/>
<path d="M1651 3218 c2 -30 2 -31 6 -5 5 34 23 36 23 2 0 -14 5 -25 11 -25 6
0 9 12 7 28 -2 19 -9 28 -25 30 -20 3 -23 -1 -22 -30z"/>
<path d="M1850 3235 c18 -10 20 -14 8 -15 -9 0 -20 -4 -23 -10 -9 -15 8 -12
31 5 16 13 17 16 4 25 -8 5 -22 10 -30 9 -9 0 -5 -6 10 -14z"/>
<path d="M2136 3235 c-8 -23 4 -45 25 -45 10 0 19 4 19 10 0 5 -7 7 -15 4 -11
-4 -15 0 -15 16 0 16 4 20 15 16 8 -3 15 -1 15 4 0 16 -37 11 -44 -5z"/>
<path d="M2852 3220 c0 -19 2 -27 5 -17 2 9 2 25 0 35 -3 9 -5 1 -5 -18z"/>
<path d="M3140 3220 c0 -16 5 -30 10 -30 6 0 10 14 10 30 0 17 -4 30 -10 30
-5 0 -10 -13 -10 -30z"/>
<path d="M3294 3235 c-9 -23 3 -45 26 -45 11 0 20 4 20 10 0 5 -7 7 -15 4 -8
-4 -15 -1 -15 5 0 6 9 11 20 11 13 0 18 5 14 15 -4 8 -15 15 -25 15 -11 0 -22
-7 -25 -15z"/>
<path d="M3361 3218 c2 -31 2 -31 6 -5 2 15 10 27 18 27 8 0 16 -12 18 -27 4
-26 4 -26 6 5 1 28 -2 32 -24 32 -22 0 -25 -4 -24 -32z"/>
<path d="M3470 3210 c-8 -5 -10 -10 -5 -10 6 0 17 5 25 10 8 5 11 10 5 10 -5
0 -17 -5 -25 -10z"/>
<path d="M1143 3080 c0 -25 2 -35 4 -22 2 12 2 32 0 45 -2 12 -4 2 -4 -23z"/>
<path d="M1578 3108 c-2 -7 -1 -26 3 -43 6 -28 7 -28 9 -5 1 14 3 33 5 43 4
19 -11 24 -17 5z"/>
<path d="M2081 3104 c0 -11 3 -14 6 -6 3 7 2 16 -1 19 -3 4 -6 -2 -5 -13z"/>
<path d="M2813 3080 c0 -25 2 -35 4 -22 2 12 2 32 0 45 -2 12 -4 2 -4 -23z"/>
<path d="M2901 3078 c1 -35 2 -38 8 -18 l7 25 9 -24 c7 -24 8 -24 21 -6 12 17
14 17 14 2 0 -9 5 -17 10 -17 6 0 10 18 10 40 0 46 -15 52 -32 13 l-11 -28
-10 28 c-16 40 -27 33 -26 -15z"/>
<path d="M3251 3104 c0 -11 3 -14 6 -6 3 7 2 16 -1 19 -3 4 -6 -2 -5 -13z"/>
<path d="M3271 3104 c0 -11 3 -14 6 -6 3 7 2 16 -1 19 -3 4 -6 -2 -5 -13z"/>
<path d="M3371 3084 c-7 -19 -10 -38 -7 -41 3 -4 6 -1 6 5 0 16 33 15 48 0 16
-16 15 -8 -3 36 -8 20 -19 36 -23 36 -4 0 -14 -16 -21 -36z m29 1 c0 -8 -4
-15 -10 -15 -5 0 -7 7 -4 15 4 8 8 15 10 15 2 0 4 -7 4 -15z"/>
<path d="M3737 3113 c-8 -14 -19 -73 -13 -73 6 0 27 72 22 78 -2 2 -6 0 -9 -5z"/>
<path d="M3954 3088 c-9 -36 -10 -36 -34 -23 l-25 15 23 6 c12 3 22 10 22 15
0 5 -14 2 -31 -7 -33 -17 -31 -23 14 -42 25 -11 28 -10 38 15 5 14 8 34 6 42
-2 9 -7 -1 -13 -21z"/>
<path d="M3983 3080 c0 -25 2 -35 4 -22 2 12 2 32 0 45 -2 12 -4 2 -4 -23z"/>
<path d="M1276 3094 c-30 -17 -26 -28 14 -38 l25 -7 -25 15 -25 16 23 6 c12 3
22 10 22 15 0 11 1 11 -34 -7z"/>
<path d="M3628 3105 c-6 -7 3 -65 11 -65 7 0 7 58 -1 65 -2 3 -7 3 -10 0z"/>
<path d="M3676 3093 l-30 -16 28 -14 c15 -8 30 -12 33 -9 3 3 -5 10 -18 14
l-24 9 23 7 c12 4 22 12 22 17 0 11 1 11 -34 -8z"/>
<path d="M4030 3101 c0 -5 10 -12 23 -15 l22 -6 -25 -15 c-32 -18 -14 -19 19
-1 l25 14 -32 16 c-18 9 -32 12 -32 7z"/>
<path d="M1080 3090 c-18 -11 -6 -25 30 -34 l25 -7 -24 14 c-23 14 -23 15 -5
25 14 8 15 11 4 12 -8 0 -22 -5 -30 -10z"/>
<path d="M1329 3098 c0 -2 -3 -15 -5 -30 -4 -25 -2 -28 24 -28 26 0 28 3 24
30 -3 21 -10 30 -23 30 -11 0 -19 -1 -20 -2z m28 -14 c-3 -3 -12 -4 -19 -1 -8
3 -5 6 6 6 11 1 17 -2 13 -5z m-2 -24 c-3 -5 -11 -10 -16 -10 -6 0 -7 5 -4 10
3 6 11 10 16 10 6 0 7 -4 4 -10z"/>
<path d="M1623 3093 c9 -2 23 -2 30 0 6 3 -1 5 -18 5 -16 0 -22 -2 -12 -5z"/>
<path d="M1907 3086 c-10 -26 4 -47 27 -44 15 2 21 10 21 28 0 29 -38 41 -48
16z m38 -16 c0 -7 -6 -15 -12 -17 -8 -3 -13 4 -13 17 0 13 5 20 13 18 6 -3 12
-11 12 -18z"/>
<path d="M1971 3073 c-1 -29 2 -33 24 -33 22 0 25 4 24 33 -1 29 -2 29 -8 8
-9 -35 -29 -37 -34 -4 -4 27 -4 27 -6 -4z"/>
<path d="M2134 3085 c-9 -23 3 -45 25 -45 21 0 33 22 25 45 -4 8 -15 15 -25
15 -11 0 -22 -7 -25 -15z m36 -15 c0 -21 -15 -27 -25 -10 -7 12 2 30 16 30 5
0 9 -9 9 -20z"/>
<path d="M2201 3068 c2 -31 2 -31 6 -5 2 15 10 27 18 27 8 0 16 -12 18 -27 4
-26 4 -26 6 5 1 28 -2 32 -24 32 -22 0 -25 -4 -24 -32z"/>
<path d="M2747 3093 c-15 -15 -6 -45 15 -51 21 -5 21 -6 2 -13 -18 -7 -17 -8
4 -8 19 -1 22 4 22 39 0 32 -4 40 -18 40 -10 0 -22 -3 -25 -7z m33 -23 c0 -11
-4 -20 -9 -20 -14 0 -23 18 -16 30 10 17 25 11 25 -10z"/>
<path d="M2834 3085 c-9 -23 3 -45 26 -45 11 0 20 4 20 10 0 5 -7 7 -15 4 -8
-4 -15 -1 -15 5 0 6 9 11 20 11 13 0 18 5 14 15 -4 8 -15 15 -25 15 -11 0 -22
-7 -25 -15z"/>
<path d="M2994 3085 c-9 -23 3 -45 26 -45 11 0 20 4 20 10 0 5 -6 7 -14 4 -8
-3 -17 -1 -21 5 -3 7 2 11 14 11 12 0 21 7 21 15 0 8 -9 15 -20 15 -11 0 -23
-7 -26 -15z m33 -1 c-3 -3 -12 -4 -19 -1 -8 3 -5 6 6 6 11 1 17 -2 13 -5z"/>
<path d="M3050 3070 c0 -16 5 -30 10 -30 6 0 10 11 10 25 0 34 18 32 23 -2 4
-26 4 -26 6 5 1 28 -2 32 -24 32 -21 0 -25 -5 -25 -30z"/>
<path d="M3314 3089 c18 -11 18 -12 -5 -26 l-24 -14 25 7 c26 7 47 21 39 28
-2 2 -15 7 -29 10 -22 6 -23 6 -6 -5z"/>
<path d="M3562 3073 c2 -20 9 -29 26 -31 19 -3 22 1 21 30 -2 30 -2 31 -6 6
-5 -35 -23 -37 -23 -3 0 14 -5 25 -11 25 -6 0 -9 -12 -7 -27z"/>
<path d="M4012 3070 c0 -19 2 -27 5 -17 2 9 2 25 0 35 -3 9 -5 1 -5 -18z"/>
<path d="M1623 3063 c9 -2 25 -2 35 0 9 3 1 5 -18 5 -19 0 -27 -2 -17 -5z"/>
<path d="M873 2930 c0 -25 2 -35 4 -22 2 12 2 32 0 45 -2 12 -4 2 -4 -23z"/>
<path d="M1140 2930 c0 -22 5 -40 10 -40 6 0 10 11 10 25 0 34 18 32 23 -2 4
-26 4 -26 6 5 1 22 -3 32 -14 32 -8 0 -15 5 -15 10 0 6 -4 10 -10 10 -5 0 -10
-18 -10 -40z"/>
<path d="M1308 2958 c-2 -7 -1 -26 3 -43 7 -30 7 -30 8 -3 1 23 6 27 39 31
l37 4 -38 1 c-23 1 -36 6 -32 12 3 6 2 10 -3 10 -6 0 -12 -6 -14 -12z"/>
<path d="M2061 2954 c0 -11 3 -14 6 -6 3 7 2 16 -1 19 -3 4 -6 -2 -5 -13z"/>
<path d="M2081 2954 c0 -11 3 -14 6 -6 3 7 2 16 -1 19 -3 4 -6 -2 -5 -13z"/>
<path d="M2420 2956 c0 -9 -8 -12 -25 -8 -22 4 -25 1 -25 -27 0 -25 4 -31 21
-31 15 0 19 -4 15 -16 -3 -9 -6 -24 -6 -34 0 -10 -7 -26 -16 -34 -8 -9 -14
-28 -13 -44 4 -44 -12 -112 -26 -112 -19 0 -27 -28 -15 -51 12 -21 3 -89 -11
-89 -5 0 -9 -17 -9 -38 0 -21 -14 -100 -30 -176 -23 -106 -28 -142 -19 -152
16 -20 461 -20 478 -1 8 10 4 45 -16 136 -25 114 -25 124 -10 133 11 6 17 22
17 43 0 31 -3 35 -25 35 -26 0 -29 4 -39 53 -5 20 -3 27 9 27 11 0 15 11 15
40 0 36 -3 40 -24 40 -21 0 -26 6 -33 43 -8 38 -7 43 12 47 29 8 28 54 -2 58
-14 2 -23 -2 -24 -10 -1 -7 -7 12 -15 42 -7 30 -10 57 -6 60 11 8 8 65 -3 62
-6 -2 -9 -11 -7 -20 2 -14 1 -14 -7 -3 -5 8 -7 20 -4 28 3 8 -2 13 -16 13 -12
0 -21 -4 -21 -10 0 -5 -22 -10 -50 -10 -27 0 -50 5 -50 10 0 6 -4 10 -10 10
-5 0 -10 -6 -10 -14z m-16 -22 c13 -5 14 -9 5 -20 -16 -20 -29 -17 -29 6 0 22
1 23 24 14z m146 -151 c13 -54 25 -118 28 -143 2 -25 8 -49 12 -55 4 -5 11
-29 15 -53 6 -36 4 -41 -9 -36 -13 5 -16 -1 -16 -30 0 -24 5 -36 14 -36 9 0
12 9 10 28 -2 15 -1 20 2 12 3 -8 9 -24 14 -35 21 -47 26 -90 14 -114 l-12
-23 -7 22 c-9 30 -17 18 -9 -14 8 -32 22 -34 33 -4 8 21 8 22 37 -93 4 -14 -6
-17 -58 -18 -40 -1 -65 3 -71 11 -7 10 -10 10 -14 1 -2 -7 -13 -13 -24 -13
-10 0 -19 6 -20 13 0 10 -2 10 -6 0 -3 -9 -30 -13 -84 -13 -77 0 -79 1 -74 23
14 64 45 207 45 212 0 3 6 5 14 5 8 0 18 4 21 10 3 6 -1 7 -9 4 -12 -4 -16 0
-16 16 0 16 4 21 16 16 14 -5 15 -4 5 8 -15 18 1 122 17 112 4 -2 7 10 6 28
-1 18 3 56 8 84 9 45 13 51 26 40 13 -11 14 -10 4 8 -8 16 -8 24 1 34 9 10 9
11 -1 6 -10 -6 -11 -1 -6 21 13 60 15 63 43 63 28 0 29 -3 51 -97z m110 -13
c0 -11 -7 -20 -15 -20 -8 0 -15 9 -15 20 0 11 7 20 15 20 8 0 15 -9 15 -20z
m-313 -162 c-3 -7 -5 -2 -5 12 0 14 2 19 5 13 2 -7 2 -19 0 -25z m328 12 c0
-7 -6 -15 -12 -17 -8 -3 -13 4 -13 17 0 13 5 20 13 18 6 -3 12 -11 12 -18z
m35 -160 c0 -11 -4 -20 -10 -20 -5 0 -10 9 -10 20 0 11 5 20 10 20 6 0 10 -9
10 -20z"/>
<path d="M2493 2793 c9 -2 23 -2 30 0 6 3 -1 5 -18 5 -16 0 -22 -2 -12 -5z"/>
<path d="M2493 2763 c9 -2 25 -2 35 0 9 3 1 5 -18 5 -19 0 -27 -2 -17 -5z"/>
<path d="M2500 2661 c0 -5 10 -11 23 -13 16 -2 23 -11 25 -30 5 -39 17 -35 16
4 -1 19 -7 32 -13 31 -6 -2 -11 2 -11 7 0 6 -9 10 -20 10 -11 0 -20 -4 -20 -9z"/>
<path d="M2453 2643 c9 -2 23 -2 30 0 6 3 -1 5 -18 5 -16 0 -22 -2 -12 -5z"/>
<path d="M2453 2613 c9 -2 25 -2 35 0 9 3 1 5 -18 5 -19 0 -27 -2 -17 -5z"/>
<path d="M2421 2470 c0 -29 2 -40 8 -31 6 9 11 10 15 2 4 -6 12 -11 18 -11 6
0 6 6 -2 15 -17 21 -4 33 40 38 34 4 34 4 -7 5 -24 1 -45 -3 -49 -10 -6 -9
-10 -5 -15 12 -5 19 -7 15 -8 -20z"/>
<path d="M2541 2494 c0 -11 3 -14 6 -6 3 7 2 16 -1 19 -3 4 -6 -2 -5 -13z"/>
<path d="M2561 2494 c0 -11 3 -14 6 -6 3 7 2 16 -1 19 -3 4 -6 -2 -5 -13z"/>
<path d="M2483 2453 c9 -2 25 -2 35 0 9 3 1 5 -18 5 -19 0 -27 -2 -17 -5z"/>
<path d="M2484 2326 c-9 -34 -10 -34 -34 -21 l-25 15 23 6 c12 3 22 10 22 15
0 5 -13 3 -30 -6 -16 -9 -30 -18 -30 -20 0 -6 72 -37 75 -33 8 9 22 78 16 78
-4 0 -12 -15 -17 -34z"/>
<path d="M2550 2351 c0 -5 -9 -11 -21 -14 -29 -8 -22 -51 9 -55 20 -3 22 1 22
37 0 23 -2 41 -5 41 -3 0 -5 -4 -5 -9z m0 -41 c0 -11 -7 -20 -15 -20 -8 0 -15
9 -15 20 0 11 7 20 15 20 8 0 15 -9 15 -20z"/>
<path d="M2582 2310 c0 -19 2 -27 5 -17 2 9 2 25 0 35 -3 9 -5 1 -5 -18z"/>
<path d="M2813 2930 c0 -25 2 -35 4 -22 2 12 2 32 0 45 -2 12 -4 2 -4 -23z"/>
<path d="M2901 2928 c1 -35 2 -38 8 -18 l7 25 9 -24 c7 -24 8 -24 21 -6 12 17
14 17 14 2 0 -9 5 -17 10 -17 6 0 10 18 10 40 0 46 -15 52 -32 13 l-11 -28
-10 28 c-16 40 -27 33 -26 -15z"/>
<path d="M3186 2954 c-9 -23 -7 -57 4 -74 7 -11 8 -5 4 20 -2 19 0 42 6 50 16
24 32 -7 26 -50 -4 -25 -3 -31 4 -20 21 33 8 90 -20 90 -10 0 -21 -7 -24 -16z"/>
<path d="M3251 2954 c0 -11 3 -14 6 -6 3 7 2 16 -1 19 -3 4 -6 -2 -5 -13z"/>
<path d="M3271 2954 c0 -11 3 -14 6 -6 3 7 2 16 -1 19 -3 4 -6 -2 -5 -13z"/>
<path d="M4007 2963 c-8 -14 -19 -73 -13 -73 6 0 27 72 22 78 -2 2 -6 0 -9 -5z"/>
<path d="M4224 2936 c-9 -34 -10 -34 -34 -21 l-25 15 23 6 c12 3 22 10 22 15
0 5 -13 3 -30 -6 -16 -9 -30 -18 -30 -20 0 -4 67 -35 76 -35 2 0 7 17 11 38
l7 37 7 -40 6 -40 2 43 c1 52 -21 58 -35 8z"/>
<path d="M1006 2944 c-30 -17 -26 -28 14 -38 l25 -7 -25 15 -25 16 23 6 c12 3
22 10 22 15 0 11 1 11 -34 -7z"/>
<path d="M4300 2951 c0 -5 10 -12 23 -15 l22 -6 -25 -15 c-32 -18 -14 -19 19
-1 l25 14 -32 16 c-18 9 -32 12 -32 7z"/>
<path d="M810 2940 c-18 -11 -6 -25 30 -34 l25 -7 -24 14 c-23 14 -23 15 -5
25 14 8 15 11 4 12 -8 0 -22 -5 -30 -10z"/>
<path d="M892 2920 c0 -19 2 -27 5 -17 2 9 2 25 0 35 -3 9 -5 1 -5 -18z"/>
<path d="M940 2935 c18 -10 20 -14 8 -15 -9 0 -20 -4 -23 -10 -9 -15 8 -12 31
5 16 13 17 16 4 25 -8 5 -22 10 -30 9 -9 0 -5 -6 10 -14z"/>
<path d="M1052 2920 c-1 -27 3 -30 28 -30 26 0 28 2 21 28 -5 16 -15 28 -28
30 -16 2 -20 -3 -21 -28z m28 -10 c0 -5 -4 -10 -10 -10 -5 0 -10 5 -10 10 0 6
5 10 10 10 6 0 10 -4 10 -10z"/>
<path d="M1631 2903 c1 -27 3 -41 6 -32 2 10 13 19 24 22 13 3 19 14 19 31 0
21 -5 26 -25 26 -23 0 -25 -3 -24 -47z m39 17 c0 -11 -7 -20 -15 -20 -8 0 -15
9 -15 20 0 11 7 20 15 20 8 0 15 -9 15 -20z"/>
<path d="M1694 2935 c-9 -23 3 -45 26 -45 11 0 20 4 20 10 0 5 -6 7 -14 4 -8
-3 -17 -1 -21 5 -3 7 2 11 14 11 12 0 21 7 21 15 0 8 -9 15 -20 15 -11 0 -23
-7 -26 -15z m33 -1 c-3 -3 -12 -4 -19 -1 -8 3 -5 6 6 6 11 1 17 -2 13 -5z"/>
<path d="M1750 2920 c0 -16 4 -30 9 -30 5 0 11 14 13 30 3 20 0 30 -9 30 -8 0
-13 -12 -13 -30z"/>
<path d="M1792 2920 c0 -19 2 -27 5 -17 2 9 2 25 0 35 -3 9 -5 1 -5 -18z"/>
<path d="M2007 2944 c-4 -4 -7 -18 -7 -31 0 -16 6 -23 19 -23 11 0 22 4 25 9
4 5 -3 7 -14 4 -11 -3 -20 0 -20 6 0 6 9 11 21 11 12 0 19 5 17 13 -5 14 -31
21 -41 11z m30 -10 c-3 -3 -12 -4 -19 -1 -8 3 -5 6 6 6 11 1 17 -2 13 -5z"/>
<path d="M2134 2935 c-9 -23 3 -45 25 -45 21 0 33 22 25 45 -4 8 -15 15 -25
15 -11 0 -22 -7 -25 -15z m36 -15 c0 -21 -15 -27 -25 -10 -7 12 2 30 16 30 5
0 9 -9 9 -20z"/>
<path d="M2201 2918 c2 -31 2 -31 6 -5 2 15 10 27 18 27 8 0 16 -12 18 -27 4
-26 4 -26 6 5 1 28 -2 32 -24 32 -22 0 -25 -4 -24 -32z"/>
<path d="M2747 2943 c-15 -15 -6 -45 15 -51 21 -5 21 -6 2 -13 -18 -7 -17 -8
4 -8 19 -1 22 4 22 39 0 32 -4 40 -18 40 -10 0 -22 -3 -25 -7z m33 -23 c0 -11
-4 -20 -9 -20 -14 0 -23 18 -16 30 10 17 25 11 25 -10z"/>
<path d="M2834 2935 c-9 -23 3 -45 26 -45 11 0 20 4 20 10 0 5 -7 7 -15 4 -8
-4 -15 -1 -15 5 0 6 9 11 20 11 13 0 18 5 14 15 -4 8 -15 15 -25 15 -11 0 -22
-7 -25 -15z"/>
<path d="M2994 2935 c-9 -23 3 -45 26 -45 11 0 20 4 20 10 0 5 -6 7 -14 4 -8
-3 -17 -1 -21 5 -3 7 2 11 14 11 12 0 21 7 21 15 0 8 -9 15 -20 15 -11 0 -23
-7 -26 -15z m33 -1 c-3 -3 -12 -4 -19 -1 -8 3 -5 6 6 6 11 1 17 -2 13 -5z"/>
<path d="M3314 2939 c18 -11 18 -12 -5 -26 l-24 -14 25 7 c26 7 47 21 39 28
-2 2 -15 7 -29 10 -22 6 -23 6 -6 -5z"/>
<path d="M3621 2918 c1 -22 3 -26 6 -13 3 11 10 26 15 33 8 9 6 12 -6 12 -12
0 -16 -9 -15 -32z"/>
<path d="M3662 2920 c0 -19 2 -27 5 -17 2 9 2 25 0 35 -3 9 -5 1 -5 -18z"/>
<path d="M3810 2920 c0 -27 2 -28 50 -28 28 0 50 4 50 9 0 5 -7 6 -15 3 -8 -4
-15 -1 -15 5 0 6 9 11 20 11 12 0 17 5 14 14 -3 9 -22 14 -55 14 -47 0 -49 -1
-49 -28z m40 10 c13 -9 13 -11 0 -20 -22 -15 -30 -12 -30 10 0 22 8 25 30 10z"/>
<path d="M3940 2940 c-13 -9 -12 -12 4 -25 11 -8 25 -15 30 -15 6 0 3 7 -7 14
-18 14 -18 15 0 25 14 8 14 10 3 11 -8 0 -22 -5 -30 -10z"/>
<path d="M4033 2936 c3 -8 2 -18 -4 -21 -16 -10 0 -25 27 -25 22 0 25 4 22 28
-2 20 -9 28 -27 30 -18 3 -22 0 -18 -12z m27 -26 c0 -5 -4 -10 -10 -10 -5 0
-10 5 -10 10 0 6 5 10 10 10 6 0 10 -4 10 -10z"/>
<path d="M4110 2935 c18 -10 20 -14 8 -15 -9 0 -20 -4 -23 -10 -9 -15 8 -12
31 5 16 13 17 16 4 25 -8 5 -22 10 -30 9 -9 0 -5 -6 10 -14z"/>
<path d="M4282 2920 c0 -19 2 -27 5 -17 2 9 2 25 0 35 -3 9 -5 1 -5 -18z"/>
<path d="M1353 2913 c9 -2 23 -2 30 0 6 3 -1 5 -18 5 -16 0 -22 -2 -12 -5z"/>
<path d="M1020 2780 c0 -22 5 -40 10 -40 6 0 10 18 10 40 0 22 -4 40 -10 40
-5 0 -10 -18 -10 -40z"/>
<path d="M1468 2808 c-2 -7 -1 -26 3 -43 7 -30 7 -30 8 -3 1 23 6 27 39 31
l37 4 -38 1 c-23 1 -36 6 -32 12 3 6 2 10 -3 10 -6 0 -12 -6 -14 -12z"/>
<path d="M2061 2804 c0 -11 3 -14 6 -6 3 7 2 16 -1 19 -3 4 -6 -2 -5 -13z"/>
<path d="M2081 2804 c0 -11 3 -14 6 -6 3 7 2 16 -1 19 -3 4 -6 -2 -5 -13z"/>
<path d="M2813 2780 c0 -25 2 -35 4 -22 2 12 2 32 0 45 -2 12 -4 2 -4 -23z"/>
<path d="M2901 2778 c1 -35 2 -38 8 -18 l7 25 9 -24 c7 -24 8 -24 21 -6 12 17
14 17 14 2 0 -9 5 -17 10 -17 6 0 10 18 10 40 0 46 -15 52 -32 13 l-11 -28
-10 28 c-16 40 -27 33 -26 -15z"/>
<path d="M3186 2804 c-9 -23 -7 -57 4 -74 7 -11 8 -5 4 20 -2 19 0 42 6 50 16
24 32 -7 26 -50 -4 -25 -3 -31 4 -20 21 33 8 90 -20 90 -10 0 -21 -7 -24 -16z"/>
<path d="M3251 2804 c0 -11 3 -14 6 -6 3 7 2 16 -1 19 -3 4 -6 -2 -5 -13z"/>
<path d="M3271 2804 c0 -11 3 -14 6 -6 3 7 2 16 -1 19 -3 4 -6 -2 -5 -13z"/>
<path d="M3844 2790 c-7 -31 -18 -36 -43 -21 -11 7 -10 11 5 20 14 8 15 10 4
11 -24 0 -46 -18 -35 -28 18 -15 64 -31 68 -24 9 14 18 72 13 72 -4 0 -9 -13
-12 -30z"/>
<path d="M4077 2813 c-8 -14 -19 -73 -13 -73 3 0 10 15 15 33 l9 32 1 -32 c1
-48 21 -41 21 7 0 28 -4 40 -14 40 -8 0 -17 -3 -19 -7z"/>
<path d="M3930 2801 c0 -5 10 -12 23 -15 l22 -6 -25 -14 c-23 -13 -25 -13 -30
7 -3 12 -15 23 -26 25 -17 2 -21 -3 -22 -28 -1 -25 3 -30 23 -30 14 0 40 8 59
17 29 14 40 14 62 4 15 -6 29 -9 32 -7 3 3 -6 10 -19 14 l-24 9 23 7 c12 4 22
12 22 17 0 5 -13 3 -30 -6 -27 -14 -33 -14 -60 0 -16 9 -30 11 -30 6z m-30
-41 c0 -5 -4 -10 -10 -10 -5 0 -10 5 -10 10 0 6 5 10 10 10 6 0 10 -4 10 -10z"/>
<path d="M970 2790 c-13 -9 -12 -12 4 -25 11 -8 25 -15 30 -15 6 0 3 7 -7 14
-18 14 -18 15 0 25 14 8 14 10 3 11 -8 0 -22 -5 -30 -10z"/>
<path d="M1052 2770 c0 -19 2 -27 5 -17 2 9 2 25 0 35 -3 9 -5 1 -5 -18z"/>
<path d="M1094 2788 c18 -10 18 -11 -5 -24 -16 -9 -19 -13 -8 -14 8 0 24 7 35
15 16 13 17 16 4 25 -8 5 -22 10 -30 10 -11 -1 -10 -4 4 -12z"/>
<path d="M1360 2770 c0 -16 4 -30 9 -30 5 0 11 14 13 30 3 20 0 30 -9 30 -8 0
-13 -12 -13 -30z"/>
<path d="M1404 2785 c-9 -23 3 -45 26 -45 11 0 20 4 20 10 0 5 -7 7 -15 4 -8
-4 -15 -1 -15 5 0 6 9 11 20 11 13 0 18 5 14 15 -4 8 -15 15 -25 15 -11 0 -22
-7 -25 -15z"/>
<path d="M1731 2768 c1 -22 3 -26 6 -13 3 11 10 26 15 33 8 9 6 12 -6 12 -12
0 -16 -9 -15 -32z"/>
<path d="M1767 2786 c-10 -26 4 -47 27 -44 15 2 21 10 21 28 0 29 -38 41 -48
16z m38 -16 c0 -7 -6 -15 -12 -17 -8 -3 -13 4 -13 17 0 13 5 20 13 18 6 -3 12
-11 12 -18z"/>
<path d="M1828 2760 c-2 -22 0 -40 4 -40 5 0 8 18 8 40 0 22 -2 40 -4 40 -2 0
-6 -18 -8 -40z"/>
<path d="M1857 2786 c-10 -25 3 -46 27 -45 16 1 17 2 4 6 -25 6 -22 23 3 23
26 0 20 24 -8 28 -11 2 -23 -4 -26 -12z"/>
<path d="M2005 2791 c-3 -6 5 -15 17 -22 22 -12 22 -12 3 -20 -19 -7 -19 -8 2
-8 18 -1 22 4 21 29 -1 22 -6 30 -19 30 -10 0 -20 -4 -24 -9z"/>
<path d="M2134 2785 c-9 -23 3 -45 25 -45 21 0 33 22 25 45 -4 8 -15 15 -25
15 -11 0 -22 -7 -25 -15z m36 -15 c0 -21 -15 -27 -25 -10 -7 12 2 30 16 30 5
0 9 -9 9 -20z"/>
<path d="M2342 2770 c0 -19 2 -27 5 -17 2 9 2 25 0 35 -3 9 -5 1 -5 -18z"/>
<path d="M2834 2785 c-9 -23 3 -45 26 -45 11 0 20 4 20 10 0 5 -7 7 -15 4 -8
-4 -15 -1 -15 5 0 6 9 11 20 11 13 0 18 5 14 15 -4 8 -15 15 -25 15 -11 0 -22
-7 -25 -15z"/>
<path d="M3050 2770 c0 -16 5 -30 10 -30 6 0 10 11 10 25 0 34 18 32 23 -2 4
-26 4 -26 6 5 1 28 -2 32 -24 32 -21 0 -25 -5 -25 -30z"/>
<path d="M3121 2773 c-1 -29 2 -33 24 -33 21 0 25 5 25 30 0 17 -4 30 -10 30
-5 0 -10 -11 -10 -25 0 -34 -18 -32 -23 3 -4 25 -4 25 -6 -5z"/>
<path d="M3538 2760 c-2 -22 0 -40 4 -40 5 0 8 18 8 40 0 22 -2 40 -4 40 -2 0
-6 -18 -8 -40z"/>
<path d="M3564 2785 c-9 -23 3 -45 26 -45 11 0 20 4 20 10 0 5 -6 7 -14 4 -8
-3 -17 -1 -21 5 -3 7 2 11 14 11 12 0 21 7 21 15 0 8 -9 15 -20 15 -11 0 -23
-7 -26 -15z m33 -1 c-3 -3 -12 -4 -19 -1 -8 3 -5 6 6 6 11 1 17 -2 13 -5z"/>
<path d="M4122 2770 c0 -19 2 -27 5 -17 2 9 2 25 0 35 -3 9 -5 1 -5 -18z"/>
<path d="M4164 2789 c18 -11 18 -12 -5 -26 l-24 -14 25 7 c26 7 47 21 39 28
-2 2 -15 7 -29 10 -22 6 -23 6 -6 -5z"/>
<path d="M1503 2763 c9 -2 25 -2 35 0 9 3 1 5 -18 5 -19 0 -27 -2 -17 -5z"/>
<path d="M843 2630 c0 -25 2 -35 4 -22 2 12 2 32 0 45 -2 12 -4 2 -4 -23z"/>
<path d="M1122 2630 c1 -29 2 -35 5 -17 5 34 23 36 23 2 0 -14 5 -25 10 -25
18 0 11 50 -7 57 -10 4 -21 11 -25 17 -4 6 -7 -9 -6 -34z"/>
<path d="M1278 2658 c-2 -7 -1 -26 3 -43 6 -28 7 -28 9 -5 1 14 3 33 5 43 4
19 -11 24 -17 5z"/>
<path d="M2003 2630 c0 -25 2 -35 4 -22 2 12 2 32 0 45 -2 12 -4 2 -4 -23z"/>
<path d="M2021 2654 c0 -11 3 -14 6 -6 3 7 2 16 -1 19 -3 4 -6 -2 -5 -13z"/>
<path d="M2041 2654 c0 -11 3 -14 6 -6 3 7 2 16 -1 19 -3 4 -6 -2 -5 -13z"/>
<path d="M2857 2663 c-11 -10 -8 -73 3 -73 6 0 10 10 11 23 l0 22 10 -23 c10
-25 28 -21 30 6 1 11 4 8 9 -8 7 -21 8 -17 9 20 0 42 -1 44 -14 26 -8 -11 -15
-27 -15 -35 -1 -9 -7 -1 -15 17 -15 34 -18 36 -28 25z"/>
<path d="M3211 2654 c0 -11 3 -14 6 -6 3 7 2 16 -1 19 -3 4 -6 -2 -5 -13z"/>
<path d="M3869 2633 c-2 -32 -3 -33 -6 -10 -6 39 -45 34 -50 -5 -3 -27 -2 -28
37 -28 l40 0 0 40 c0 51 -19 53 -21 3z m-22 1 c-3 -3 -12 -4 -19 -1 -8 3 -5 6
6 6 11 1 17 -2 13 -5z m-2 -24 c-3 -5 -11 -10 -16 -10 -6 0 -7 5 -4 10 3 6 11
10 16 10 6 0 7 -4 4 -10z"/>
<path d="M4026 2636 c-6 -32 -8 -33 -31 -22 -24 11 -24 11 -5 20 11 5 20 13
20 18 0 5 -14 1 -32 -8 l-32 -16 35 -19 c19 -10 37 -18 40 -19 4 0 11 18 17
40 5 22 6 40 2 40 -4 0 -11 -15 -14 -34z"/>
<path d="M4254 2638 c-9 -36 -10 -36 -34 -23 l-25 15 23 6 c12 3 22 10 22 15
0 5 -14 2 -31 -7 -33 -17 -31 -23 14 -42 25 -11 28 -10 38 15 5 14 8 34 6 42
-2 9 -7 -1 -13 -21z"/>
<path d="M4283 2630 c0 -25 2 -35 4 -22 2 12 2 32 0 45 -2 12 -4 2 -4 -23z"/>
<path d="M796 2644 c-30 -17 -26 -28 14 -38 l25 -7 -25 15 -25 16 23 6 c12 3
22 10 22 15 0 11 1 11 -34 -7z"/>
<path d="M976 2643 l-30 -16 28 -14 c15 -8 30 -12 33 -9 3 3 -5 10 -18 14
l-24 9 23 7 c12 4 22 12 22 17 0 11 1 11 -34 -8z"/>
<path d="M3508 2655 c-6 -7 3 -65 11 -65 7 0 7 58 -1 65 -2 3 -7 3 -10 0z"/>
<path d="M4330 2651 c0 -5 10 -12 23 -15 l22 -6 -25 -15 c-32 -18 -14 -19 19
-1 l25 14 -32 16 c-18 9 -32 12 -32 7z"/>
<path d="M860 2620 c0 -16 5 -30 10 -30 6 0 10 14 10 30 0 17 -4 30 -10 30 -5
0 -10 -13 -10 -30z"/>
<path d="M910 2635 c18 -10 20 -14 8 -15 -9 0 -20 -4 -23 -10 -9 -15 8 -12 31
5 16 13 17 16 4 25 -8 5 -22 10 -30 9 -9 0 -5 -6 10 -14z"/>
<path d="M1029 2648 c0 -2 -3 -15 -5 -30 -4 -25 -2 -28 24 -28 26 0 28 3 24
30 -3 21 -10 30 -23 30 -11 0 -19 -1 -20 -2z m28 -14 c-3 -3 -12 -4 -19 -1 -8
3 -5 6 6 6 11 1 17 -2 13 -5z m-2 -24 c-3 -5 -11 -10 -16 -10 -6 0 -7 5 -4 10
3 6 11 10 16 10 6 0 7 -4 4 -10z"/>
<path d="M1181 2618 c1 -22 3 -26 6 -13 3 11 10 26 15 33 8 9 6 12 -6 12 -12
0 -16 -9 -15 -32z"/>
<path d="M1217 2636 c-10 -25 3 -46 27 -45 16 1 17 2 4 6 -25 6 -22 23 3 23
26 0 20 24 -8 28 -11 2 -23 -4 -26 -12z"/>
<path d="M1575 2641 c-3 -6 5 -15 17 -22 22 -12 22 -12 3 -20 -19 -7 -19 -8 2
-8 18 -1 22 4 21 29 -1 22 -6 30 -19 30 -10 0 -20 -4 -24 -9z"/>
<path d="M1851 2618 c2 -30 2 -31 6 -5 5 34 23 36 23 2 0 -14 5 -25 11 -25 6
0 9 12 7 28 -2 19 -9 28 -25 30 -20 3 -23 -1 -22 -30z"/>
<path d="M1912 2620 c0 -19 2 -27 5 -17 2 9 2 25 0 35 -3 9 -5 1 -5 -18z"/>
<path d="M1936 2628 c-9 -36 -8 -38 22 -38 26 0 28 3 24 30 -5 36 -37 42 -46
8z m34 -18 c0 -5 -7 -10 -16 -10 -8 0 -12 5 -9 10 3 6 10 10 16 10 5 0 9 -4 9
-10z"/>
<path d="M2094 2635 c-9 -23 3 -45 25 -45 21 0 33 22 25 45 -4 8 -15 15 -25
15 -11 0 -22 -7 -25 -15z m36 -15 c0 -21 -15 -27 -25 -10 -7 12 2 30 16 30 5
0 9 -9 9 -20z"/>
<path d="M2302 2620 c0 -19 2 -27 5 -17 2 9 2 25 0 35 -3 9 -5 1 -5 -18z"/>
<path d="M2957 2644 c-4 -4 -7 -18 -7 -31 0 -16 6 -23 19 -23 11 0 22 4 25 9
4 5 -3 7 -14 4 -11 -3 -20 0 -20 6 0 6 9 11 21 11 12 0 19 5 17 13 -5 14 -31
21 -41 11z m30 -10 c-3 -3 -12 -4 -19 -1 -8 3 -5 6 6 6 11 1 17 -2 13 -5z"/>
<path d="M3011 2618 c1 -30 2 -30 8 -9 9 35 29 37 34 4 4 -27 4 -27 6 5 1 28
-2 32 -24 32 -22 0 -25 -4 -24 -32z"/>
<path d="M3081 2623 c-1 -29 2 -33 24 -33 21 0 25 5 25 30 0 17 -4 30 -10 30
-5 0 -10 -11 -10 -25 0 -34 -18 -32 -23 3 -4 25 -4 25 -6 -5z"/>
<path d="M3397 2644 c-4 -4 -7 -18 -7 -31 0 -16 6 -23 19 -23 11 0 22 4 25 9
4 5 -3 7 -14 4 -11 -3 -20 0 -20 6 0 6 9 11 21 11 12 0 19 5 17 13 -5 14 -31
21 -41 11z m30 -10 c-3 -3 -12 -4 -19 -1 -8 3 -5 6 6 6 11 1 17 -2 13 -5z"/>
<path d="M3450 2637 c0 -8 10 -19 23 -26 l22 -12 -22 5 c-13 2 -23 0 -23 -6 0
-13 43 -6 47 9 2 6 -6 15 -19 19 -22 7 -22 7 -3 15 19 7 19 8 -2 8 -13 1 -23
-5 -23 -12z"/>
<path d="M3542 2620 c0 -19 2 -27 5 -17 2 9 2 25 0 35 -3 9 -5 1 -5 -18z"/>
<path d="M3720 2620 c0 -16 5 -30 10 -30 6 0 10 11 10 25 0 34 18 32 23 -2 4
-26 4 -26 6 5 1 28 -2 32 -24 32 -21 0 -25 -5 -25 -30z"/>
<path d="M3792 2620 c0 -19 2 -27 5 -17 2 9 2 25 0 35 -3 9 -5 1 -5 -18z"/>
<path d="M3900 2639 c0 -7 8 -18 18 -26 16 -14 16 -14 0 -9 -10 3 -18 1 -18
-4 0 -13 37 -13 45 -1 3 5 -4 16 -16 24 -19 14 -20 15 -2 20 15 4 14 5 -4 6
-13 0 -23 -4 -23 -10z"/>
<path d="M4056 2628 c-3 -13 -6 -26 -6 -30 0 -13 48 -9 85 6 38 16 44 30 19
40 -27 10 -39 7 -20 -7 17 -12 16 -14 -8 -25 -24 -11 -26 -10 -26 13 0 33 -35
35 -44 3z m34 -18 c0 -5 -7 -10 -16 -10 -8 0 -12 5 -9 10 3 6 10 10 16 10 5 0
9 -4 9 -10z"/>
<path d="M4312 2620 c0 -19 2 -27 5 -17 2 9 2 25 0 35 -3 9 -5 1 -5 -18z"/>
<path d="M1053 2470 c0 -25 2 -35 4 -22 2 12 2 32 0 45 -2 12 -4 2 -4 -23z"/>
<path d="M1332 2470 c1 -29 2 -35 5 -17 5 34 23 36 23 2 0 -14 5 -25 10 -25
18 0 11 50 -7 57 -10 4 -21 11 -25 17 -4 6 -7 -9 -6 -34z"/>
<path d="M1591 2494 c0 -11 3 -14 6 -6 3 7 2 16 -1 19 -3 4 -6 -2 -5 -13z"/>
<path d="M1611 2494 c0 -11 3 -14 6 -6 3 7 2 16 -1 19 -3 4 -6 -2 -5 -13z"/>
<path d="M1640 2503 c0 -23 2 -28 11 -25 5 1 9 -3 9 -9 0 -6 -7 -9 -15 -6 -19
8 -26 -5 -14 -23 6 -10 9 -11 9 -2 0 6 5 12 11 12 5 0 7 -6 3 -12 -5 -10 -4
-10 6 -1 7 7 15 27 17 45 2 25 0 29 -7 18 -9 -13 -11 -13 -20 0 -6 10 -10 11
-10 3z"/>
<path d="M2050 2499 c0 -5 -4 -8 -9 -4 -5 3 -12 1 -15 -3 -3 -5 -17 -7 -31 -4
-22 4 -25 1 -25 -27 0 -24 4 -31 19 -31 11 0 23 5 27 11 4 8 0 9 -15 4 -16 -5
-21 -2 -21 13 0 15 6 20 25 18 19 -1 25 -7 25 -23 0 -13 4 -23 8 -23 4 0 8 12
7 28 0 21 5 28 23 30 27 4 29 22 2 22 -11 0 -20 -5 -20 -11z"/>
<path d="M2891 2468 c1 -39 2 -40 8 -13 l7 30 7 -27 c4 -16 11 -28 16 -28 5 0
12 12 17 28 l7 27 7 -30 c7 -28 8 -27 9 13 1 46 -15 57 -25 17 -3 -14 -10 -25
-14 -25 -4 0 -11 11 -14 25 -10 40 -26 29 -25 -17z"/>
<path d="M3215 2460 c0 -43 2 -48 13 -33 6 9 12 24 12 33 0 9 -6 24 -12 33
-11 15 -13 10 -13 -33z"/>
<path d="M3251 2494 c0 -11 3 -14 6 -6 3 7 2 16 -1 19 -3 4 -6 -2 -5 -13z"/>
<path d="M3271 2494 c0 -11 3 -14 6 -6 3 7 2 16 -1 19 -3 4 -6 -2 -5 -13z"/>
<path d="M3362 2498 c-25 -25 -6 -68 29 -68 10 0 20 4 23 8 3 5 -5 8 -17 8
-17 -1 -22 5 -22 24 0 20 4 25 23 23 13 -2 21 1 17 7 -8 14 -38 13 -53 -2z"/>
<path d="M3816 2476 c-6 -32 -8 -33 -31 -22 -24 11 -24 11 -5 20 11 5 20 13
20 18 0 5 -14 1 -32 -8 l-32 -16 35 -19 c19 -10 37 -18 40 -19 4 0 11 18 17
40 5 22 6 40 2 40 -4 0 -11 -15 -14 -34z"/>
<path d="M4046 2478 c-8 -35 -9 -36 -33 -25 -23 10 -24 12 -7 24 13 10 14 13
3 13 -8 0 -21 -5 -29 -10 -17 -11 -9 -20 33 -38 25 -11 28 -10 38 15 5 14 8
34 6 42 -2 9 -7 -1 -11 -21z"/>
<path d="M4073 2470 c0 -25 2 -35 4 -22 2 12 2 32 0 45 -2 12 -4 2 -4 -23z"/>
<path d="M1006 2484 c-30 -17 -26 -28 14 -38 l25 -7 -25 15 -25 16 23 6 c12 3
22 10 22 15 0 11 1 11 -34 -7z"/>
<path d="M1100 2491 c0 -5 10 -12 23 -15 l22 -6 -25 -15 c-30 -17 -21 -20 15
-3 19 8 31 8 51 -1 15 -6 29 -9 32 -7 3 3 -6 10 -19 14 l-24 9 23 7 c12 4 22
12 22 17 0 5 -13 3 -30 -6 -27 -14 -33 -14 -60 0 -16 9 -30 11 -30 6z"/>
<path d="M3714 2487 c-7 -21 -2 -49 11 -54 11 -3 12 53 2 63 -4 4 -9 0 -13 -9z"/>
<path d="M1070 2460 c0 -16 5 -30 10 -30 6 0 10 14 10 30 0 17 -4 30 -10 30
-5 0 -10 -13 -10 -30z"/>
<path d="M1239 2488 c0 -2 -3 -15 -5 -30 -4 -25 -2 -28 24 -28 26 0 28 3 24
30 -3 21 -10 30 -23 30 -11 0 -19 -1 -20 -2z m28 -14 c-3 -3 -12 -4 -19 -1 -8
3 -5 6 6 6 11 1 17 -2 13 -5z m-2 -24 c-3 -5 -11 -10 -16 -10 -6 0 -7 5 -4 10
3 6 11 10 16 10 6 0 7 -4 4 -10z"/>
<path d="M1391 2458 c1 -22 3 -26 6 -13 3 11 10 26 15 33 8 9 6 12 -6 12 -12
0 -16 -9 -15 -32z"/>
<path d="M1694 2475 c-13 -32 23 -63 40 -36 4 5 -3 7 -14 4 -16 -4 -20 0 -20
17 0 17 4 21 20 17 11 -3 18 -1 14 4 -8 14 -34 11 -40 -6z"/>
<path d="M1750 2460 c0 -27 3 -31 23 -28 16 2 22 10 22 28 0 18 -6 26 -22 28
-20 3 -23 -1 -23 -28z m40 0 c0 -11 -7 -20 -15 -20 -8 0 -15 9 -15 20 0 11 7
20 15 20 8 0 15 -9 15 -20z"/>
<path d="M2254 2475 c-9 -23 3 -45 26 -45 11 0 20 4 20 9 0 5 -8 8 -17 7 -10
0 -18 6 -18 14 0 8 8 14 18 14 9 -1 17 2 17 7 0 15 -40 10 -46 -6z"/>
<path d="M2984 2475 c-9 -23 3 -45 26 -45 11 0 20 4 20 10 0 5 -7 7 -15 4 -8
-4 -15 -1 -15 5 0 6 9 11 20 11 13 0 18 5 14 15 -4 8 -15 15 -25 15 -11 0 -22
-7 -25 -15z"/>
<path d="M3051 2458 c2 -30 2 -31 6 -5 5 34 23 36 23 2 0 -14 5 -25 11 -25 6
0 9 12 7 28 -2 19 -9 28 -25 30 -20 3 -23 -1 -22 -30z"/>
<path d="M3310 2475 c18 -10 20 -14 8 -15 -9 0 -20 -4 -23 -10 -9 -15 8 -12
31 5 16 13 17 16 4 25 -8 5 -22 10 -30 9 -9 0 -5 -6 10 -14z"/>
<path d="M3656 2475 c-8 -23 4 -45 25 -45 10 0 19 4 19 10 0 5 -7 7 -15 4 -11
-4 -15 0 -15 16 0 16 4 20 15 16 8 -3 15 -1 15 4 0 16 -37 11 -44 -5z"/>
<path d="M3846 2468 c-3 -13 -6 -26 -6 -30 0 -13 48 -9 85 6 38 16 44 30 19
40 -27 10 -39 7 -20 -7 17 -12 16 -14 -8 -25 -24 -11 -26 -10 -26 13 0 33 -35
35 -44 3z m34 -18 c0 -5 -7 -10 -16 -10 -8 0 -12 5 -9 10 3 6 10 10 16 10 5 0
9 -4 9 -10z"/>
<path d="M4090 2460 c0 -16 5 -30 10 -30 6 0 10 14 10 30 0 17 -4 30 -10 30
-5 0 -10 -13 -10 -30z"/>
<path d="M4140 2475 c18 -10 20 -14 8 -15 -9 0 -20 -4 -23 -10 -9 -15 8 -12
31 5 16 13 17 16 4 25 -8 5 -22 10 -30 9 -9 0 -5 -6 10 -14z"/>
<path d="M2235 2080 c-3 -6 -3 -18 0 -28 7 -20 239 -226 261 -230 17 -4 260
204 269 230 3 10 3 22 0 28 -4 6 -102 10 -265 10 -163 0 -261 -4 -265 -10z
m198 -69 c-4 -17 -9 -18 -29 -9 -28 13 -22 28 11 28 18 0 22 -4 18 -19z m36
-12 c9 36 31 38 32 4 l2 -28 4 26 c3 20 10 27 29 27 25 0 25 -1 4 -15 -25 -17
-18 -33 16 -33 19 0 24 5 25 28 l1 27 9 -27 c9 -24 6 -30 -37 -70 -26 -24 -50
-43 -53 -43 -4 0 -34 24 -67 54 -52 47 -53 53 -8 34 6 -2 15 8 20 24 l8 28 4
-30 c5 -29 5 -29 11 -6z m151 21 c0 -5 -4 -10 -10 -10 -5 0 -10 5 -10 10 0 6
5 10 10 10 6 0 10 -4 10 -10z m30 6 c0 -3 -4 -8 -10 -11 -5 -3 -10 -1 -10 4 0
6 5 11 10 11 6 0 10 -2 10 -4z m-90 -26 c0 -5 -4 -10 -10 -10 -5 0 -10 5 -10
10 0 6 5 10 10 10 6 0 10 -4 10 -10z"/>
<path d="M2212 1947 c-12 -14 -92 -370 -92 -410 0 -51 36 -32 181 95 76 67
139 127 139 133 0 5 -4 15 -8 20 -14 20 -192 175 -201 175 -5 0 -13 -6 -19
-13z m143 -177 c0 -10 -147 -141 -152 -136 -3 3 31 178 43 219 5 15 14 10 57
-29 29 -26 52 -50 52 -54z"/>
<path d="M2663 1874 c-54 -47 -99 -93 -101 -103 -2 -11 43 -57 134 -136 135
-118 175 -141 182 -102 5 23 -77 398 -90 415 -6 6 -14 12 -19 12 -4 0 -52 -39
-106 -86z m107 -101 c12 -54 24 -109 28 -123 5 -24 5 -24 -34 8 -21 17 -59 50
-84 72 l-45 39 55 50 c30 28 56 50 57 51 1 0 11 -44 23 -97z"/>
<path d="M2283 1542 c-110 -97 -204 -183 -207 -191 -18 -39 0 -41 424 -41 350
0 409 2 420 15 10 12 10 18 -1 31 -30 37 -410 364 -421 363 -7 0 -104 -80
-215 -177z m380 -36 l149 -131 -156 -3 c-86 -1 -226 -1 -312 0 l-156 3 153
136 c85 75 159 134 164 131 6 -3 77 -65 158 -136z"/>
<path d="M2495 1176 c-5 -2 -22 -7 -36 -10 -14 -3 -43 -19 -64 -36 -46 -36
-67 -38 -85 -5 -16 31 -58 45 -129 45 -85 0 -125 -15 -146 -53 -24 -46 -17
-67 35 -97 52 -30 62 -55 28 -65 -47 -15 -52 -27 -23 -51 24 -19 26 -24 15
-44 -6 -12 -33 -31 -58 -42 -81 -35 -95 -58 -71 -112 15 -33 56 -46 143 -46
91 0 128 11 181 55 24 19 48 35 54 35 6 0 18 -14 26 -31 24 -45 73 -63 180
-62 116 0 153 15 189 77 40 69 39 136 -4 211 l-32 57 21 28 c38 52 25 97 -35
128 -22 11 -170 25 -189 18z m-217 -70 c2 -10 0 -21 -5 -25 -6 -3 -13 -25 -17
-48 -5 -33 -3 -44 10 -51 13 -7 15 -23 12 -83 -2 -41 -8 -82 -12 -91 -6 -14
-4 -18 13 -18 12 0 21 -4 21 -10 0 -5 -11 -10 -25 -10 -18 0 -26 -7 -31 -24
-8 -34 -49 -46 -161 -46 -92 0 -94 0 -104 26 -5 15 -7 30 -3 33 3 3 55 8 116
11 77 3 113 9 116 18 2 8 -11 12 -49 12 -64 0 -55 17 11 22 l45 3 2 60 c1 33
-1 86 -4 118 l-6 57 -83 0 c-45 0 -86 5 -89 10 -3 6 3 10 14 10 16 0 21 6 21
25 l0 26 102 -3 c91 -3 103 -5 106 -22z m406 8 c4 -9 13 -14 21 -10 10 4 15
-1 15 -15 0 -11 -4 -18 -9 -14 -5 3 -12 1 -16 -5 -4 -6 -55 -10 -126 -10 -99
0 -119 -3 -119 -15 0 -11 12 -15 50 -15 38 0 50 -4 50 -15 0 -12 -13 -15 -55
-15 -55 0 -61 -4 -49 -34 5 -13 25 -16 113 -16 l107 0 14 -35 c9 -23 20 -35
32 -35 16 0 18 -5 12 -37 -4 -21 -7 -44 -7 -50 0 -7 -8 -13 -16 -13 -17 0 -44
-56 -35 -71 3 -5 -51 -9 -120 -9 -114 0 -126 2 -136 19 -12 23 -13 52 -2 50
39 -6 262 3 262 11 0 6 -18 10 -40 10 -36 0 -40 3 -40 25 0 23 3 25 50 25 36
0 50 4 50 14 0 28 -29 35 -145 38 -100 3 -120 6 -129 21 -8 14 -8 20 4 27 12
8 12 10 -4 16 -14 5 -16 14 -11 41 4 25 2 35 -10 39 -23 9 -19 33 5 27 16 -4
23 2 35 31 l15 36 114 0 c95 0 115 -3 120 -16z"/>
<path d="M1786 1148 c-17 -28 -58 -116 -81 -178 -10 -25 -33 -77 -52 -117 -27
-57 -34 -82 -31 -120 3 -44 5 -48 30 -51 45 -5 52 7 162 288 50 126 52 147 25
176 -28 30 -35 30 -53 2z m34 -13 c0 -8 5 -15 10 -15 6 0 10 -4 10 -10 0 -5
-7 -10 -15 -10 -11 0 -14 -7 -9 -24 4 -18 0 -27 -16 -36 -13 -7 -21 -20 -20
-33 4 -43 0 -57 -16 -57 -11 0 -14 -5 -10 -17 9 -23 -13 -83 -30 -83 -10 0
-15 -8 -13 -22 1 -13 -1 -30 -4 -38 -3 -8 -11 -32 -17 -52 -8 -28 -17 -38 -32
-38 -18 0 -19 4 -13 37 8 46 12 53 31 53 8 0 14 7 14 15 0 8 -5 15 -12 15 -6
0 -2 9 9 20 12 10 25 30 28 42 4 13 16 43 27 67 14 32 17 46 8 51 -8 5 -8 11
3 22 8 7 18 25 22 38 4 13 14 30 21 38 17 16 18 32 3 32 -5 0 -7 5 -4 10 9 15
25 12 25 -5z"/>
<path d="M3342 1008 c-18 -18 -15 -49 8 -83 24 -36 25 -58 5 -75 -19 -16 -20
-59 -1 -66 21 -8 135 15 177 36 37 19 49 42 49 92 0 35 -37 63 -117 88 -75 23
-104 25 -121 8z m163 -62 c49 -16 51 -17 47 -50 -3 -29 -10 -36 -46 -50 -23
-9 -49 -16 -58 -16 -8 0 -32 -7 -51 -15 -43 -18 -47 -18 -47 -5 0 6 7 10 15
10 8 0 15 4 15 10 0 9 61 40 108 54 12 4 22 10 22 14 0 9 -42 26 -103 42 -51
14 -62 23 -53 45 5 13 12 12 53 -4 26 -10 71 -26 98 -35z"/>
<path d="M1362 989 c-55 -18 -65 -25 -78 -55 -8 -19 -19 -34 -24 -34 -22 0 -2
-42 28 -60 46 -28 145 -60 187 -60 28 0 38 5 47 26 9 20 9 29 0 42 -34 47 -36
62 -18 97 10 19 16 41 13 49 -9 22 -77 20 -155 -5z m129 -20 c-11 -10 -27 -19
-36 -19 -8 0 -15 -4 -15 -9 0 -4 -20 -14 -45 -21 -25 -7 -45 -17 -45 -22 0
-10 37 -26 100 -42 35 -8 46 -16 48 -33 4 -28 6 -29 -103 10 -88 31 -90 33
-87 62 4 38 22 51 86 65 28 6 62 17 76 25 33 18 47 8 21 -16z"/>
</g>
</svg>
